  0
SECTION
  2
HEADER
  9
$ACADVER
  1
AC1009
  9
$DWGCODEPAGE
  3
ansi_1252
  9
$INSBASE
 10
0.0
 20
0.0
 30
0.0
  9
$EXTMIN
 10
1.000000000000000E+20
 20
1.000000000000000E+20
 30
1.000000000000000E+20
  9
$EXTMAX
 10
-1.000000000000000E+20
 20
-1.000000000000000E+20
 30
-1.000000000000000E+20
  9
$LIMMIN
 10
0.0
 20
0.0
  9
$LIMMAX
 10
12.0
 20
9.0
  9
$ORTHOMODE
 70
     0
  9
$REGENMODE
 70
     1
  9
$FILLMODE
 70
     1
  9
$QTEXTMODE
 70
     0
  9
$MIRRTEXT
 70
     1
  9
$DRAGMODE
 70
     2
  9
$LTSCALE
 40
1.0
  9
$OSMODE
 70
    37
  9
$ATTMODE
 70
     1
  9
$TEXTSIZE
 40
0.2
  9
$TRACEWID
 40
0.05
  9
$TEXTSTYLE
  7
STANDARD
  9
$CLAYER
  8
0
  9
$CELTYPE
  6
BYLAYER
  9
$CECOLOR
 62
   256
  9
$DIMSCALE
 40
1.0
  9
$DIMASZ
 40
0.18
  9
$DIMEXO
 40
0.0625
  9
$DIMDLI
 40
0.38
  9
$DIMRND
 40
0.0
  9
$DIMDLE
 40
0.0
  9
$DIMEXE
 40
0.18
  9
$DIMTP
 40
0.0
  9
$DIMTM
 40
0.0
  9
$DIMTXT
 40
0.18
  9
$DIMCEN
 40
0.09
  9
$DIMTSZ
 40
0.0
  9
$DIMTOL
 70
     0
  9
$DIMLIM
 70
     0
  9
$DIMTIH
 70
     1
  9
$DIMTOH
 70
     1
  9
$DIMSE1
 70
     0
  9
$DIMSE2
 70
     0
  9
$DIMTAD
 70
     0
  9
$DIMZIN
 70
     0
  9
$DIMBLK
  1

  9
$DIMASO
 70
     1
  9
$DIMSHO
 70
     1
  9
$DIMPOST
  1

  9
$DIMAPOST
  1

  9
$DIMALT
 70
     0
  9
$DIMALTD
 70
     2
  9
$DIMALTF
 40
0.0393700787401575
  9
$DIMLFAC
 40
1.0
  9
$DIMTOFL
 70
     0
  9
$DIMTVP
 40
0.0
  9
$DIMTIX
 70
     0
  9
$DIMSOXD
 70
     0
  9
$DIMSAH
 70
     0
  9
$DIMBLK1
  1

  9
$DIMBLK2
  1

  9
$DIMSTYLE
  2
STANDARD
  9
$DIMCLRD
 70
     0
  9
$DIMCLRE
 70
     0
  9
$DIMCLRT
 70
     0
  9
$DIMTFAC
 40
1.0
  9
$DIMGAP
 40
0.09
  9
$LUNITS
 70
     2
  9
$LUPREC
 70
     4
  9
$SKETCHINC
 40
0.1
  9
$FILLETRAD
 40
0.5
  9
$AUNITS
 70
     0
  9
$AUPREC
 70
     0
  9
$MENU
  1
.
  9
$ELEVATION
 40
0.0
  9
$PELEVATION
 40
0.0
  9
$THICKNESS
 40
0.0
  9
$LIMCHECK
 70
     0
  9
$CHAMFERA
 40
0.0
  9
$CHAMFERB
 40
0.0
  9
$SKPOLY
 70
     0
  9
$TDCREATE
 40
2459439.248546239
  9
$TDUPDATE
 40
2459439.24854625
  9
$TDINDWG
 40
0.0000000116
  9
$TDUSRTIMER
 40
0.0000000116
  9
$USRTIMER
 70
     1
  9
$ANGBASE
 50
0.0
  9
$ANGDIR
 70
     0
  9
$PDMODE
 70
     0
  9
$PDSIZE
 40
0.0
  9
$PLINEWID
 40
0.0
  9
$COORDS
 70
     1
  9
$SPLFRAME
 70
     0
  9
$SPLINETYPE
 70
     6
  9
$SPLINESEGS
 70
     8
  9
$ATTDIA
 70
     0
  9
$ATTREQ
 70
     1
  9
$HANDLING
 70
     1
  9
$HANDSEED
  5
100001EC
  9
$SURFTAB1
 70
     6
  9
$SURFTAB2
 70
     6
  9
$SURFTYPE
 70
     6
  9
$SURFU
 70
     6
  9
$SURFV
 70
     6
  9
$UCSNAME
  2

  9
$UCSORG
 10
0.0
 20
0.0
 30
0.0
  9
$UCSXDIR
 10
1.0
 20
0.0
 30
0.0
  9
$UCSYDIR
 10
0.0
 20
1.0
 30
0.0
  9
$PUCSNAME
  2

  9
$PUCSORG
 10
0.0
 20
0.0
 30
0.0
  9
$PUCSXDIR
 10
1.0
 20
0.0
 30
0.0
  9
$PUCSYDIR
 10
0.0
 20
1.0
 30
0.0
  9
$USERI1
 70
     0
  9
$USERI2
 70
     0
  9
$USERI3
 70
     0
  9
$USERI4
 70
     0
  9
$USERI5
 70
     0
  9
$USERR1
 40
0.0
  9
$USERR2
 40
0.0
  9
$USERR3
 40
0.0
  9
$USERR4
 40
0.0
  9
$USERR5
 40
0.0
  9
$WORLDVIEW
 70
     1
  9
$SHADEDGE
 70
     3
  9
$SHADEDIF
 70
    70
  9
$TILEMODE
 70
     1
  9
$MAXACTVP
 70
    64
  9
$PLIMCHECK
 70
     0
  9
$PEXTMIN
 10
1.000000000000000E+20
 20
1.000000000000000E+20
 30
1.000000000000000E+20
  9
$PEXTMAX
 10
-1.000000000000000E+20
 20
-1.000000000000000E+20
 30
-1.000000000000000E+20
  9
$PLIMMIN
 10
0.0
 20
0.0
  9
$PLIMMAX
 10
12.0
 20
9.0
  9
$UNITMODE
 70
     0
  9
$VISRETAIN
 70
     1
  9
$PLINEGEN
 70
     0
  9
$PSLTSCALE
 70
     1
  0
ENDSEC
  0
SECTION
  2
TABLES
  0
TABLE
  2
VPORT
 70
     1
  0
VPORT
  2
*ACTIVE
 70
     0
 10
0.0
 20
0.0
 11
1.0
 21
1.0
 12
10.42990654205607
 22
4.5
 13
0.0
 23
0.0
 14
0.5
 24
0.5
 15
0.5
 25
0.5
 16
0.0
 26
0.0
 36
1.0
 17
0.0
 27
0.0
 37
0.0
 40
9.0
 41
1.972972972850329
 42
50.0
 43
0.0
 44
0.0
 50
0.0
 51
0.0
 71
     0
 72
   100
 73
     1
 74
     3
 75
     0
 76
     0
 77
     0
 78
     0
  0
ENDTAB
  0
TABLE
  2
LTYPE
 70
     7
  0
LTYPE
  2
CONTINUOUS
 70
     0
  3
Solid line
 72
    65
 73
     0
 40
0.0
  0
LTYPE
  2
ONS_PHANTOM
 70
     0
  3
Onshape Phantom line ______ __ __ ______
 72
    65
 73
     6
 40
0.4999999999999999
 49
0.25
 49
-0.05
 49
0.05
 49
-0.05
 49
0.05
 49
-0.05
  0
LTYPE
  2
CENTER
 70
     0
  3
Center line ____ _ ____ _ ____ _
 72
    65
 73
     4
 40
0.7199999999999999
 49
0.45
 49
-0.09
 49
0.09
 49
-0.09
  0
LTYPE
  2
DASHED
 70
     0
  3
Dashed line __ __ __ __ __
 72
    65
 73
     2
 40
0.75
 49
0.5
 49
-0.25
  0
LTYPE
  2
ONS_DASHDOT
 70
     0
  3
Onshape Dashed with Dot _ . ____ . ____
 72
    65
 73
     4
 40
0.71
 49
0.5
 49
-0.1
 49
0.01
 49
-0.1
  0
LTYPE
  2
ONS_DOTTED
 70
     0
  3
Onshape Dotted line . . . . . . .
 72
    65
 73
     2
 40
0.11
 49
0.01
 49
-0.1
  0
LTYPE
  2
HIDDEN
 70
     0
  3
Hidden line ____ ____ ____ ____ 
 72
    65
 73
     2
 40
0.15
 49
0.1
 49
-0.05
  0
ENDTAB
  0
TABLE
  2
LAYER
 70
    39
  0
LAYER
  2
0
 70
     0
 62
     7
  6
CONTINUOUS
  0
LAYER
  2
SECTION_CUTTING_LINE
 70
     0
 62
     7
  6
ONS_PHANTOM
  0
LAYER
  2
DETAIL_VIEW_BORDER
 70
     0
 62
     7
  6
CONTINUOUS
  0
LAYER
  2
DETAIL_VIEW_PARENT_BORDER
 70
     0
 62
     7
  6
ONS_PHANTOM
  0
LAYER
  2
TEXT
 70
     0
 62
     7
  6
CONTINUOUS
  0
LAYER
  2
SKETCHED_GEOMETRY
 70
     0
 62
    -7
  6
CONTINUOUS
  0
LAYER
  2
VIRTUAL_SHARPS
 70
     0
 62
    -7
  6
CONTINUOUS
  0
LAYER
  2
CENTERLINES
 70
     0
 62
    -7
  6
CENTER
  0
LAYER
  2
CENTERMARKS
 70
     0
 62
    -7
  6
CONTINUOUS
  0
LAYER
  2
TABLES
 70
     0
 62
     7
  6
CONTINUOUS
  0
LAYER
  2
IMAGES
 70
     0
 62
    -7
  6
CONTINUOUS
  0
LAYER
  2
ANNOTATION_LINES
 70
     0
 62
    -7
  6
CONTINUOUS
  0
LAYER
  2
ANNOTATION_TEXT
 70
     0
 62
    -7
  6
CONTINUOUS
  0
LAYER
  2
SIDE_THREAD_SYMBOLS
 70
     0
 62
     7
  6
HIDDEN
  0
LAYER
  2
SIDE_THREAD_SYMBOLS_HIDDEN
 70
     0
 62
    -7
  6
HIDDEN
  0
LAYER
  2
SURFACE_THREAD_SYMBOLS
 70
     0
 62
     7
  6
HIDDEN
  0
LAYER
  2
SURFACE_THREAD_SYMBOLS_ON_
 70
     0
 62
     7
  6
HIDDEN
  0
LAYER
  2
SURFACE_THREAD_SYMBOLS_HID
 70
     0
 62
    -7
  6
HIDDEN
  0
LAYER
  2
BLIND_THREAD_SYMBOLS
 70
     0
 62
     7
  6
CONTINUOUS
  0
LAYER
  2
BLIND_THREAD_SYMBOLS_HIDDE
 70
     0
 62
    -7
  6
HIDDEN
  0
LAYER
  2
EXPLODE_LINES
 70
     0
 62
     7
  6
ONS_PHANTOM
  0
LAYER
  2
HIDDEN_EXPLODE_LINES
 70
     0
 62
    -7
  6
ONS_PHANTOM
  0
LAYER
  2
BREAK_LINES
 70
     0
 62
    -7
  6
CONTINUOUS
  0
LAYER
  2
SHEETMETAL_BEND_LINES_UP
 70
     0
 62
     7
  6
CENTER
  0
LAYER
  2
SHEETMETAL_BEND_LINES_DOWN
 70
     0
 62
     7
  6
CENTER
  0
LAYER
  2
SHEETMETAL_BEND_TANGENT_LI
 70
     0
 62
     7
  6
CONTINUOUS
  0
LAYER
  2
SHEETMETAL_CUT_LINES
 70
     0
 62
     7
  6
CONTINUOUS
  0
LAYER
  2
REGION_ASSOC_POINTS
 70
     0
 62
    -7
  6
CONTINUOUS
  0
LAYER
  2
HIDDEN
 70
     0
 62
    -7
  6
HIDDEN
  0
LAYER
  2
VISIBLE
 70
     0
 62
     7
  6
CONTINUOUS
  0
LAYER
  2
MODELSKETCH_VISIBLE
 70
     0
 62
     7
  6
CONTINUOUS
  0
LAYER
  2
MODELSKETCH_POINT
 70
     0
 62
     7
  6
CONTINUOUS
  0
LAYER
  2
MODELSKETCH_CONSTRUCTION
 70
     0
 62
    -7
  6
CENTER
  0
LAYER
  2
HIDDEN_BASE_VIEW
 70
     0
 62
     7
  6
CONTINUOUS
  0
LAYER
  2
TANGENT_LINES
 70
     0
 62
    -7
  6
CONTINUOUS
  0
LAYER
  2
TANGENT_HIDDEN
 70
     0
 62
    -7
  6
HIDDEN
  0
LAYER
  2
INVISIBLE_LINES
 70
     0
 62
    -7
  6
CONTINUOUS
  0
LAYER
  2
VIEW_HATCHES
 70
     0
 62
    -7
  6
CONTINUOUS
  0
LAYER
  2
SECTION_JOG_LINES
 70
     0
 62
    -7
  6
CONTINUOUS
  0
ENDTAB
  0
TABLE
  2
STYLE
 70
     2
  0
STYLE
  2
STANDARD
 70
     0
 40
0.0
 41
1.0
 50
0.0
 71
     0
 42
0.2
  3
txt
  4

  0
STYLE
  2
TTFSTYLE
 70
     0
 40
0.0
 41
1.0
 50
0.0
 71
     0
 42
0.2
  3
Verdana.ttf
  4

  0
ENDTAB
  0
TABLE
  2
VIEW
 70
     0
  0
ENDTAB
  0
TABLE
  2
UCS
 70
     0
  0
ENDTAB
  0
TABLE
  2
APPID
 70
     1
  0
APPID
  2
ACAD
 70
     0
  0
ENDTAB
  0
TABLE
  2
DIMSTYLE
 70
     1
  0
DIMSTYLE
  2
STANDARD
 70
     0
  3

  4

  5

  6

  7

 40
1.0
 41
0.18
 42
0.0625
 43
0.38
 44
0.18
 45
0.0
 46
0.0
 47
0.0
 48
0.0
140
0.18
141
0.09
142
0.0
143
25.4
144
1.0
145
0.0
146
1.0
147
0.09
 71
     0
 72
     0
 73
     1
 74
     1
 75
     0
 76
     0
 77
     0
 78
     0
170
     0
171
     2
172
     0
173
     0
174
     0
175
     0
176
     0
177
     0
178
     0
  0
ENDTAB
  0
ENDSEC
  0
SECTION
  2
BLOCKS
  0
BLOCK
  8
0
  2
$MODEL_SPACE
 70
     0
 10
0.0
 20
0.0
 30
0.0
  3
$MODEL_SPACE
  1

  0
ENDBLK
  5
21
  8
0
  0
BLOCK
 67
     1
  8
0
  2
$PAPER_SPACE
 70
     0
 10
0.0
 20
0.0
 30
0.0
  3
$PAPER_SPACE
  1

  0
ENDBLK
  5
1D
 67
     1
  8
0
  0
ENDSEC
  0
SECTION
  2
ENTITIES
  0
LINE
  5
10000050
  8
VISIBLE
 10
-21.32893805133197
 20
33.08980654636675
 30
0.0
 11
-16.32893805133197
 21
33.08980654636675
 31
0.0
  0
LINE
  5
10000053
  8
VISIBLE
 10
-16.32893805133197
 20
33.08980654636675
 30
0.0
 11
-16.32893805133197
 21
28.08980654636674
 31
0.0
  0
LINE
  5
10000056
  8
VISIBLE
 10
-21.32893805133196
 20
28.08980654636674
 30
0.0
 11
-16.32893805133197
 21
28.08980654636674
 31
0.0
  0
LINE
  5
10000059
  8
VISIBLE
 10
-21.32893805133197
 20
33.08980654636675
 30
0.0
 11
-21.32893805133196
 21
28.08980654636674
 31
0.0
  0
LINE
  5
1000005C
  8
VISIBLE
 10
-38.38032349944117
 20
37.54621796309945
 30
0.0
 11
-33.38032349944118
 21
37.54621796309945
 31
0.0
  0
LINE
  5
1000005F
  8
VISIBLE
 10
-33.38032349944118
 20
37.54621796309945
 30
0.0
 11
-33.38032349944118
 21
32.54621796309945
 31
0.0
  0
LINE
  5
10000062
  8
VISIBLE
 10
-38.38032349944116
 20
32.54621796309945
 30
0.0
 11
-33.38032349944118
 21
32.54621796309945
 31
0.0
  0
LINE
  5
10000065
  8
VISIBLE
 10
-38.38032349944117
 20
37.54621796309945
 30
0.0
 11
-38.38032349944116
 21
32.54621796309945
 31
0.0
  0
LINE
  5
10000068
  8
VISIBLE
 10
-35.73601641151034
 20
52.84290837370872
 30
0.0
 11
-30.73601641151035
 21
52.84290837370872
 31
0.0
  0
LINE
  5
1000006B
  8
VISIBLE
 10
-30.73601641151035
 20
52.84290837370872
 30
0.0
 11
-30.73601641151035
 21
47.84290837370872
 31
0.0
  0
LINE
  5
1000006E
  8
VISIBLE
 10
-35.73601641151033
 20
47.84290837370872
 30
0.0
 11
-30.73601641151035
 21
47.84290837370872
 31
0.0
  0
LINE
  5
10000071
  8
VISIBLE
 10
-35.73601641151034
 20
52.84290837370872
 30
0.0
 11
-35.73601641151033
 21
47.84290837370872
 31
0.0
  0
LINE
  5
10000074
  8
VISIBLE
 10
-31.98136499188549
 20
67.90493371590661
 30
0.0
 11
-26.9813649918855
 21
67.90493371590661
 31
0.0
  0
LINE
  5
10000077
  8
VISIBLE
 10
-26.9813649918855
 20
67.90493371590661
 30
0.0
 11
-26.9813649918855
 21
62.90493371590661
 31
0.0
  0
LINE
  5
1000007A
  8
VISIBLE
 10
-31.98136499188549
 20
62.90493371590661
 30
0.0
 11
-26.9813649918855
 21
62.90493371590661
 31
0.0
  0
LINE
  5
1000007D
  8
VISIBLE
 10
-31.98136499188549
 20
67.90493371590661
 30
0.0
 11
-31.98136499188549
 21
62.90493371590661
 31
0.0
  0
LINE
  5
10000080
  8
VISIBLE
 10
-26.99335572223004
 20
82.60327312880413
 30
0.0
 11
-21.99335572223004
 21
82.60327312880413
 31
0.0
  0
LINE
  5
10000083
  8
VISIBLE
 10
-21.99335572223004
 20
82.60327312880413
 30
0.0
 11
-21.99335572223003
 21
77.60327312880413
 31
0.0
  0
LINE
  5
10000086
  8
VISIBLE
 10
-26.99335572223002
 20
77.60327312880413
 30
0.0
 11
-21.99335572223003
 21
77.60327312880413
 31
0.0
  0
LINE
  5
10000089
  8
VISIBLE
 10
-26.99335572223004
 20
82.60327312880413
 30
0.0
 11
-26.99335572223002
 21
77.60327312880413
 31
0.0
  0
LINE
  5
1000008C
  8
VISIBLE
 10
-20.58307219397645
 20
96.7365799657472
 30
0.0
 11
-15.58307219397645
 21
96.7365799657472
 31
0.0
  0
LINE
  5
1000008F
  8
VISIBLE
 10
-15.58307219397645
 20
96.7365799657472
 30
0.0
 11
-15.58307219397645
 21
91.73657996574718
 31
0.0
  0
LINE
  5
10000092
  8
VISIBLE
 10
-20.58307219397644
 20
91.73657996574718
 30
0.0
 11
-15.58307219397645
 21
91.73657996574718
 31
0.0
  0
LINE
  5
10000095
  8
VISIBLE
 10
-20.58307219397645
 20
96.7365799657472
 30
0.0
 11
-20.58307219397644
 21
91.73657996574718
 31
0.0
  0
LINE
  5
10000098
  8
VISIBLE
 10
-12.50458612871484
 20
109.9823080535186
 30
0.0
 11
-7.504586128714845
 21
109.9823080535187
 31
0.0
  0
LINE
  5
1000009B
  8
VISIBLE
 10
-7.504586128714845
 20
109.9823080535187
 30
0.0
 11
-7.504586128714845
 21
104.9823080535186
 31
0.0
  0
LINE
  5
1000009E
  8
VISIBLE
 10
-12.50458612871484
 20
104.9823080535186
 30
0.0
 11
-7.504586128714845
 21
104.9823080535186
 31
0.0
  0
LINE
  5
100000A1
  8
VISIBLE
 10
-12.50458612871484
 20
109.9823080535186
 30
0.0
 11
-12.50458612871484
 21
104.9823080535186
 31
0.0
  0
LINE
  5
100000A4
  8
VISIBLE
 10
-2.500000000000023
 20
121.8310801684856
 30
0.0
 11
2.499999999999974
 21
121.8310801684856
 31
0.0
  0
LINE
  5
100000A7
  8
VISIBLE
 10
2.499999999999974
 20
121.8310801684856
 30
0.0
 11
2.499999999999974
 21
116.8310801684856
 31
0.0
  0
LINE
  5
100000AA
  8
VISIBLE
 10
-2.500000000000016
 20
116.8310801684856
 30
0.0
 11
2.499999999999974
 21
116.8310801684856
 31
0.0
  0
LINE
  5
100000AD
  8
VISIBLE
 10
-2.500000000000023
 20
121.8310801684856
 30
0.0
 11
-2.500000000000016
 21
116.8310801684856
 31
0.0
  0
LINE
  5
100000B0
  8
VISIBLE
 10
7.605580242914987
 20
110.0991871961074
 30
0.0
 11
12.60558024291499
 21
110.0991871961074
 31
0.0
  0
LINE
  5
100000B3
  8
VISIBLE
 10
12.60558024291499
 20
110.0991871961074
 30
0.0
 11
12.60558024291499
 21
105.0991871961074
 31
0.0
  0
LINE
  5
100000B6
  8
VISIBLE
 10
7.605580242914995
 20
105.0991871961074
 30
0.0
 11
12.60558024291499
 21
105.0991871961074
 31
0.0
  0
LINE
  5
100000B9
  8
VISIBLE
 10
7.605580242914987
 20
110.0991871961074
 30
0.0
 11
7.605580242914995
 21
105.0991871961074
 31
0.0
  0
LINE
  5
100000BC
  8
VISIBLE
 10
15.96596392004459
 20
97.06140585641774
 30
0.0
 11
20.96596392004459
 21
97.06140585641774
 31
0.0
  0
LINE
  5
100000BF
  8
VISIBLE
 10
20.96596392004459
 20
97.06140585641774
 30
0.0
 11
20.96596392004459
 21
92.06140585641772
 31
0.0
  0
LINE
  5
100000C2
  8
VISIBLE
 10
15.9659639200446
 20
92.06140585641772
 30
0.0
 11
20.96596392004459
 21
92.06140585641772
 31
0.0
  0
LINE
  5
100000C5
  8
VISIBLE
 10
15.96596392004459
 20
97.06140585641774
 30
0.0
 11
15.9659639200446
 21
92.06140585641772
 31
0.0
  0
LINE
  5
100000C8
  8
VISIBLE
 10
22.57280579994996
 20
83.05265423706128
 30
0.0
 11
27.57280579994996
 21
83.05265423706128
 31
0.0
  0
LINE
  5
100000CB
  8
VISIBLE
 10
27.57280579994996
 20
83.05265423706128
 30
0.0
 11
27.57280579994996
 21
78.05265423706128
 31
0.0
  0
LINE
  5
100000CE
  8
VISIBLE
 10
22.57280579994997
 20
78.05265423706128
 30
0.0
 11
27.57280579994996
 21
78.05265423706128
 31
0.0
  0
LINE
  5
100000D1
  8
VISIBLE
 10
22.57280579994996
 20
83.05265423706128
 30
0.0
 11
22.57280579994997
 21
78.05265423706128
 31
0.0
  0
LINE
  5
100000D4
  8
VISIBLE
 10
27.24886311538576
 20
68.28912009213474
 30
0.0
 11
32.24886311538575
 21
68.28912009213474
 31
0.0
  0
LINE
  5
100000D7
  8
VISIBLE
 10
32.24886311538575
 20
68.28912009213474
 30
0.0
 11
32.24886311538575
 21
63.28912009213474
 31
0.0
  0
LINE
  5
100000DA
  8
VISIBLE
 10
27.24886311538576
 20
63.28912009213474
 30
0.0
 11
32.24886311538575
 21
63.28912009213474
 31
0.0
  0
LINE
  5
100000DD
  8
VISIBLE
 10
27.24886311538576
 20
68.28912009213474
 30
0.0
 11
27.24886311538576
 21
63.28912009213474
 31
0.0
  0
LINE
  5
100000E0
  8
VISIBLE
 10
32.71497920155526
 20
54.31439965963364
 30
0.0
 11
37.71497920155525
 21
54.31439965963364
 31
0.0
  0
LINE
  5
100000E3
  8
VISIBLE
 10
37.71497920155525
 20
54.31439965963364
 30
0.0
 11
37.71497920155525
 21
49.31439965963364
 31
0.0
  0
LINE
  5
100000E6
  8
VISIBLE
 10
32.71497920155527
 20
49.31439965963364
 30
0.0
 11
37.71497920155525
 21
49.31439965963364
 31
0.0
  0
LINE
  5
100000E9
  8
VISIBLE
 10
32.71497920155526
 20
54.31439965963364
 30
0.0
 11
32.71497920155527
 21
49.31439965963364
 31
0.0
  0
LINE
  5
100000EC
  8
VISIBLE
 10
-14.64434885978686
 20
27.43674592291003
 30
0.0
 11
-6.666717432628335
 21
27.43674592291003
 31
0.0
  0
ARC
  5
100000EF
  8
VISIBLE
 10
-11.42357753558328
 20
28.97696732287678
 30
0.0
 40
5.0
 50
342.0585908198915
 51
68.22010995156158
  0
ARC
  5
100000F2
  8
VISIBLE
 10
-8.455242109920547
 20
36.40589623630405
 30
0.0
 40
3.0
 50
202.284578296334
 51
248.2201099515615
  0
ARC
  5
100000F5
  8
VISIBLE
 10
-13.08180120543277
 20
34.50986065232019
 30
0.0
 40
2.0
 50
22.28457829633419
 51
68.83607183701972
  0
POLYLINE
  5
100000F8
  8
VISIBLE
 66
     1
 10
0.0
 20
0.0
 30
0.0
 70
   128
  0
VERTEX
  5
1000019D
  8
VISIBLE
 10
-12.3597261390481
 20
36.37496322282552
 30
0.0
  0
VERTEX
  5
1000019E
  8
VISIBLE
 10
-16.68628862602266
 20
38.00731425261906
 30
0.0
  0
VERTEX
  5
1000019F
  8
VISIBLE
 10
-20.11148197604485
 20
39.24120793772308
 30
0.0
  0
SEQEND
  5
100001DC
  8
VISIBLE
  0
ARC
  5
100000FB
  8
VISIBLE
 10
-20.77717536586943
 20
37.35524603176
 30
0.0
 40
2.0
 50
70.5583503433343
 51
124.8900146230881
  0
ARC
  5
100000FE
  8
VISIBLE
 10
-23.63719001872655
 20
41.45650391019702
 30
0.0
 40
3.0
 50
254.6642229682838
 51
304.8900146230883
  0
POLYLINE
  5
10000101
  8
VISIBLE
 66
     1
 10
0.0
 20
0.0
 30
0.0
 70
   128
  0
VERTEX
  5
100001A0
  8
VISIBLE
 10
-29.1057664119615
 20
39.75444285480007
 30
0.0
  0
VERTEX
  5
100001A1
  8
VISIBLE
 10
-26.49397488338063
 20
39.11163893147556
 30
0.0
  0
VERTEX
  5
100001A2
  8
VISIBLE
 10
-24.43061590126102
 20
38.56332652729698
 30
0.0
  0
SEQEND
  5
100001DD
  8
VISIBLE
  0
POLYLINE
  5
10000104
  8
VISIBLE
 66
     1
 10
0.0
 20
0.0
 30
0.0
 70
   128
  0
VERTEX
  5
100001A3
  8
VISIBLE
 10
-29.1057664119615
 20
39.75444285480007
 30
0.0
  0
VERTEX
  5
100001A4
  8
VISIBLE
 10
-27.10201543737836
 20
50.3417775093876
 30
0.0
  0
VERTEX
  5
100001A5
  8
VISIBLE
 10
-24.50824579551936
 20
60.94449956771308
 30
0.0
  0
VERTEX
  5
100001A6
  8
VISIBLE
 10
-22.03711028278687
 20
69.17745196973156
 30
0.0
  0
VERTEX
  5
100001A7
  8
VISIBLE
 10
-19.17052627561739
 20
77.23645066863965
 30
0.0
  0
SEQEND
  5
100001DE
  8
VISIBLE
  0
ARC
  5
10000107
  8
VISIBLE
 10
-16.37195563516197
 20
76.15570908510502
 30
0.0
 40
3.0
 50
91.26012168712975
 51
158.8846221424441
  0
ARC
  5
1000010A
  8
VISIBLE
 10
-16.48191313226193
 20
81.15449987376897
 30
0.0
 40
2.0
 50
271.2601216871296
 51
337.4819597692636
  0
POLYLINE
  5
1000010D
  8
VISIBLE
 66
     1
 10
0.0
 20
0.0
 30
0.0
 70
   128
  0
VERTEX
  5
100001A8
  8
VISIBLE
 10
-14.63439514332773
 20
80.38855125893603
 30
0.0
  0
VERTEX
  5
100001A9
  8
VISIBLE
 10
-13.10169607421851
 20
83.94891422067136
 30
0.0
  0
VERTEX
  5
100001AA
  8
VISIBLE
 10
-11.82986411546593
 20
86.71131140056491
 30
0.0
  0
SEQEND
  5
100001DF
  8
VISIBLE
  0
ARC
  5
10000110
  8
VISIBLE
 10
-13.636946214486
 20
87.56831448539087
 30
0.0
 40
2.0
 50
334.6274982108203
 51
39.15682809183446
  0
ARC
  5
10000113
  8
VISIBLE
 10
-9.759843726194543
 20
90.72554052976653
 30
0.0
 40
3.0
 50
152.0111096535398
 51
219.1568280918344
  0
POLYLINE
  5
10000116
  8
VISIBLE
 66
     1
 10
0.0
 20
0.0
 30
0.0
 70
   128
  0
VERTEX
  5
100001AB
  8
VISIBLE
 10
-12.40895954662964
 20
92.13344158094894
 30
0.0
  0
VERTEX
  5
100001AC
  8
VISIBLE
 10
-9.265068145297969
 20
97.67778175218112
 30
0.0
  0
VERTEX
  5
100001AD
  8
VISIBLE
 10
-5.861534587426748
 20
102.9406887898035
 30
0.0
  0
VERTEX
  5
100001AE
  8
VISIBLE
 10
-3.003434460368869
 20
106.8562390805294
 30
0.0
  0
VERTEX
  5
100001AF
  8
VISIBLE
 10
0.0178600429711851
 20
110.5611118041392
 30
0.0
  0
SEQEND
  5
100001E0
  8
VISIBLE
  0
POLYLINE
  5
10000119
  8
VISIBLE
 66
     1
 10
0.0
 20
0.0
 30
0.0
 70
   128
  0
VERTEX
  5
100001B0
  8
VISIBLE
 10
12.79696284028948
 20
92.40812090795345
 30
0.0
  0
VERTEX
  5
100001B1
  8
VISIBLE
 10
9.541188552492146
 20
97.83735073254468
 30
0.0
  0
VERTEX
  5
100001B2
  8
VISIBLE
 10
6.019560712974281
 20
103.0222404152998
 30
0.0
  0
VERTEX
  5
100001B3
  8
VISIBLE
 10
0.0178600429711851
 20
110.5611118041392
 30
0.0
  0
SEQEND
  5
100001E1
  8
VISIBLE
  0
ARC
  5
1000011C
  8
VISIBLE
 10
10.18223192583258
 20
90.93734483900774
 30
0.0
 40
3.0
 50
314.9780349383366
 51
29.35758591165211
  0
ARC
  5
1000011F
  8
VISIBLE
 10
13.71641018036055
 20
87.40045580127673
 30
0.0
 40
2.0
 50
134.9780349383368
 51
205.2931655275922
  0
POLYLINE
  5
10000122
  8
VISIBLE
 66
     1
 10
0.0
 20
0.0
 30
0.0
 70
   128
  0
VERTEX
  5
100001B4
  8
VISIBLE
 10
11.90814313995294
 20
86.54595576583174
 30
0.0
  0
VERTEX
  5
100001B5
  8
VISIBLE
 10
13.40548679559467
 20
83.26419879306445
 30
0.0
  0
VERTEX
  5
100001B6
  8
VISIBLE
 10
14.52347959584455
 20
80.65534175667061
 30
0.0
  0
SEQEND
  5
100001E2
  8
VISIBLE
  0
ARC
  5
10000125
  8
VISIBLE
 10
16.36948150791721
 20
81.42493706631326
 30
0.0
 40
2.0
 50
202.6311790032229
 51
277.3199952221526
  0
ARC
  5
10000128
  8
VISIBLE
 10
17.0065352810205
 20
76.46568687196192
 30
0.0
 40
3.0
 50
21.07987771941563
 51
97.3199952221526
  0
POLYLINE
  5
1000012B
  8
VISIBLE
 66
     1
 10
0.0
 20
0.0
 30
0.0
 70
   128
  0
VERTEX
  5
100001B7
  8
VISIBLE
 10
25.58992727045944
 20
55.34471176638881
 30
0.0
  0
VERTEX
  5
100001B8
  8
VISIBLE
 10
24.55558328145398
 20
61.49941841965381
 30
0.0
  0
VERTEX
  5
100001B9
  8
VISIBLE
 10
23.05313794490854
 20
67.73353356497988
 30
0.0
  0
VERTEX
  5
100001BA
  8
VISIBLE
 10
21.56006186233247
 20
72.64792635453149
 30
0.0
  0
VERTEX
  5
100001BB
  8
VISIBLE
 10
19.80577500557156
 20
77.54469426975646
 30
0.0
  0
SEQEND
  5
100001E3
  8
VISIBLE
  0
ARC
  5
1000012E
  8
VISIBLE
 10
31.53979747939141
 20
56.1186914152578
 30
0.0
 40
5.999999999999985
 50
187.4116139972181
 51
220.4920656998922
  0
LINE
  5
10000131
  8
VISIBLE
 10
26.97682211746669
 20
52.22263496719813
 30
0.0
 11
30.65200383963052
 21
47.91834321157395
 31
0.0
  0
ARC
  5
10000134
  8
VISIBLE
 10
35.21497920155528
 20
51.81439965963366
 30
0.0
 40
6.000000000000001
 50
220.4920656998922
 51
40.49206569989222
  0
LINE
  5
10000137
  8
VISIBLE
 10
37.79257689722655
 20
58.03568663143027
 30
0.0
 11
39.77795456348004
 21
55.71045610769337
 31
0.0
  0
ARC
  5
1000013A
  8
VISIBLE
 10
40.07406457818891
 20
59.98371485546011
 30
0.0
 40
3.0
 50
189.0148888711295
 51
220.4920656998922
  0
POLYLINE
  5
1000013D
  8
VISIBLE
 66
     1
 10
0.0
 20
0.0
 30
0.0
 70
   128
  0
VERTEX
  5
100001BC
  8
VISIBLE
 10
37.11112160954302
 20
59.513641494641
 30
0.0
  0
VERTEX
  5
100001BD
  8
VISIBLE
 10
35.8273794764723
 20
66.14301261780686
 30
0.0
  0
VERTEX
  5
100001BE
  8
VISIBLE
 10
34.09622860123932
 20
72.76275709532383
 30
0.0
  0
VERTEX
  5
100001BF
  8
VISIBLE
 10
32.43972164326129
 20
77.93220014691443
 30
0.0
  0
VERTEX
  5
100001C0
  8
VISIBLE
 10
30.53595911111657
 20
83.05307896904391
 30
0.0
  0
SEQEND
  5
100001E4
  8
VISIBLE
  0
ARC
  5
10000140
  8
VISIBLE
 10
33.32377642378651
 20
84.16126425642945
 30
0.0
 40
3.0
 50
157.3732037876285
 51
201.6783161170952
  0
ARC
  5
10000143
  8
VISIBLE
 10
28.70862448329625
 20
86.08489950412826
 30
0.0
 40
2.0
 50
337.3732037876287
 51
22.84649983887061
  0
POLYLINE
  5
10000146
  8
VISIBLE
 66
     1
 10
0.0
 20
0.0
 30
0.0
 70
   128
  0
VERTEX
  5
100001C1
  8
VISIBLE
 10
30.55172118320419
 20
86.86142674433842
 30
0.0
  0
VERTEX
  5
100001C2
  8
VISIBLE
 10
28.62620274272339
 20
91.24936785382067
 30
0.0
  0
VERTEX
  5
100001C3
  8
VISIBLE
 10
27.01109472171578
 20
94.6754494839193
 30
0.0
  0
SEQEND
  5
100001E5
  8
VISIBLE
  0
ARC
  5
10000149
  8
VISIBLE
 10
25.21251797688771
 20
93.80073713522187
 30
0.0
 40
2.0
 50
25.93531594506085
 51
75.0951099986857
  0
ARC
  5
1000014C
  8
VISIBLE
 10
26.49859432265461
 20
98.63250778715256
 30
0.0
 40
3.0
 50
208.7872190915128
 51
255.0951099986856
  0
POLYLINE
  5
1000014F
  8
VISIBLE
 66
     1
 10
0.0
 20
0.0
 30
0.0
 70
   128
  0
VERTEX
  5
100001C4
  8
VISIBLE
 10
23.86935195509659
 20
97.1878332311927
 30
0.0
  0
VERTEX
  5
100001C5
  8
VISIBLE
 10
19.04295697930993
 20
105.2448279407567
 30
0.0
  0
VERTEX
  5
100001C6
  8
VISIBLE
 10
13.66791298220869
 20
112.8396068075342
 30
0.0
  0
VERTEX
  5
100001C7
  8
VISIBLE
 10
9.090253281166092
 20
118.4160129432769
 30
0.0
  0
VERTEX
  5
100001C8
  8
VISIBLE
 10
4.223309381895632
 20
123.5929644776607
 30
0.0
  0
SEQEND
  5
100001E6
  8
VISIBLE
  0
ARC
  5
10000152
  8
VISIBLE
 10
-0.0000000000000356
 20
119.3310801684857
 30
0.0
 40
5.999999999999994
 50
45.26047317038699
 51
134.7119173871968
  0
POLYLINE
  5
10000155
  8
VISIBLE
 66
     1
 10
0.0
 20
0.0
 30
0.0
 70
   128
  0
VERTEX
  5
100001C9
  8
VISIBLE
 10
-23.51987410628612
 20
96.78736057592475
 30
0.0
  0
VERTEX
  5
100001CA
  8
VISIBLE
 10
-18.88936898143
 20
104.9397225999407
 30
0.0
  0
VERTEX
  5
100001CB
  8
VISIBLE
 10
-13.67497938442718
 20
112.638233735275
 30
0.0
  0
VERTEX
  5
100001CC
  8
VISIBLE
 10
-9.146555448674365
 20
118.3088454348721
 30
0.0
  0
VERTEX
  5
100001CD
  8
VISIBLE
 10
-4.221255193262735
 20
123.5949990928266
 30
0.0
  0
SEQEND
  5
100001E7
  8
VISIBLE
  0
ARC
  5
10000158
  8
VISIBLE
 10
-26.18054889684317
 20
98.17329335167337
 30
0.0
 40
3.0
 50
277.900493462198
 51
332.4852083048825
  0
ARC
  5
1000015B
  8
VISIBLE
 10
-25.49328351267062
 20
93.2207519543988
 30
0.0
 40
2.0
 50
97.90049346219811
 51
154.3044392581052
  0
POLYLINE
  5
1000015E
  8
VISIBLE
 66
     1
 10
0.0
 20
0.0
 30
0.0
 70
   128
  0
VERTEX
  5
100001CE
  8
VISIBLE
 10
-27.29550474943126
 20
94.08793049066972
 30
0.0
  0
VERTEX
  5
100001CF
  8
VISIBLE
 10
-29.10424201607285
 20
90.19319103727696
 30
0.0
  0
VERTEX
  5
100001D0
  8
VISIBLE
 10
-30.44452305135778
 20
87.11578136162191
 30
0.0
  0
SEQEND
  5
100001E8
  8
VISIBLE
  0
ARC
  5
10000161
  8
VISIBLE
 10
-28.60271671907862
 20
86.33619850241041
 30
0.0
 40
2.0
 50
157.0584778330413
 51
213.1551851438849
  0
ARC
  5
10000164
  8
VISIBLE
 10
-32.78867843520819
 20
83.60165566838906
 30
0.0
 40
3.0
 50
338.5323683033239
 51
33.15518514388493
  0
POLYLINE
  5
10000167
  8
VISIBLE
 66
     1
 10
0.0
 20
0.0
 30
0.0
 70
   128
  0
VERTEX
  5
100001D1
  8
VISIBLE
 10
-41.82451328998417
 20
35.86267845449149
 30
0.0
  0
VERTEX
  5
100001D2
  8
VISIBLE
 10
-39.65529957215507
 20
48.88070322685229
 30
0.0
  0
VERTEX
  5
100001D3
  8
VISIBLE
 10
-36.63471758780672
 20
62.05910070514258
 30
0.0
  0
VERTEX
  5
100001D4
  8
VISIBLE
 10
-33.61846143382401
 20
72.36685116124553
 30
0.0
  0
VERTEX
  5
100001D5
  8
VISIBLE
 10
-29.9968050302838
 20
82.5037290356508
 30
0.0
  0
SEQEND
  5
100001E9
  8
VISIBLE
  0
ARC
  5
1000016A
  8
VISIBLE
 10
-35.88032349944111
 20
35.04621796309952
 30
0.0
 40
6.000000000000036
 50
172.1791123590664
 51
196.8594583590007
  0
ARC
  5
1000016D
  8
VISIBLE
 10
-44.49349486897884
 20
32.4359921186607
 30
0.0
 40
3.0
 50
349.5934139082673
 51
16.85945835900083
  0
LINE
  5
10000170
  8
VISIBLE
 10
-41.5428427275107
 20
31.89409550485921
 30
0.0
 11
-41.90086771300856
 21
29.94463288919999
 31
0.0
  0
ARC
  5
10000173
  8
VISIBLE
 10
-39.93376628536313
 20
29.583368479999
 30
0.0
 40
2.0
 50
169.5934139082673
 51
253.8629309701361
  0
POLYLINE
  5
10000176
  8
VISIBLE
 66
     1
 10
0.0
 20
0.0
 30
0.0
 70
   128
  0
VERTEX
  5
100001D6
  8
VISIBLE
 10
-40.48963867910575
 20
27.66216940601555
 30
0.0
  0
VERTEX
  5
100001D7
  8
VISIBLE
 10
-36.78569783509676
 20
26.56397933063996
 30
0.0
  0
VERTEX
  5
100001D8
  8
VISIBLE
 10
-33.78776525119603
 20
25.63571109451131
 30
0.0
  0
SEQEND
  5
100001EA
  8
VISIBLE
  0
ARC
  5
10000179
  8
VISIBLE
 10
-32.88482616570075
 20
28.49660274011499
 30
0.0
 40
3.0
 50
252.4835446185973
 51
261.8785080778137
  0
ARC
  5
1000017C
  8
VISIBLE
 10
-33.65425338216881
 20
27.49660274011498
 30
0.0
 40
2.0
 50
279.9509322743827
 51
322.3874389566507
  0
ARC
  5
1000017F
  8
VISIBLE
 10
-29.69347407597855
 20
24.44500851944033
 30
0.0
 40
3.0
 50
75.30773768589434
 51
142.3874389566507
  0
POLYLINE
  5
10000182
  8
VISIBLE
 66
     1
 10
0.0
 20
0.0
 30
0.0
 70
   128
  0
VERTEX
  5
100001D9
  8
VISIBLE
 10
-28.93259213216808
 20
27.3469145598874
 30
0.0
  0
VERTEX
  5
100001DA
  8
VISIBLE
 10
-28.73148862616423
 20
27.29400025020662
 30
0.0
  0
VERTEX
  5
100001DB
  8
VISIBLE
 10
-28.57335647676487
 20
27.25213337130017
 30
0.0
  0
SEQEND
  5
100001EB
  8
VISIBLE
  0
ARC
  5
10000185
  8
VISIBLE
 10
-29.34312922955762
 20
24.3525730754867
 30
0.0
 40
3.0
 50
38.96208127364773
 51
75.1321250380493
  0
ARC
  5
10000188
  8
VISIBLE
 10
-25.45531783136231
 20
27.49660274011498
 30
0.0
 40
2.0
 50
218.9620812736477
 51
270.0
  0
LINE
  5
1000018B
  8
VISIBLE
 10
-25.45531783136231
 20
25.49660274011498
 30
0.0
 11
-17.45100097969402
 21
25.49660274011498
 31
0.0
  0
ARC
  5
1000018E
  8
VISIBLE
 10
-17.45100097969402
 20
28.49660274011498
 30
0.0
 40
3.0
 50
270.0
 51
338.8473905017587
  0
LINE
  5
10000191
  8
VISIBLE
 10
-14.65313321183525
 20
27.41404283249925
 30
0.0
 11
-14.64434885978686
 21
27.43674592291003
 31
0.0
  0
ENDSEC
  0
EOF
