  0
SECTION
  2
HEADER
  9
$ACADVER
  1
AC1009
  9
$DWGCODEPAGE
  3
ansi_1252
  9
$INSBASE
 10
0.0
 20
0.0
 30
0.0
  9
$EXTMIN
 10
1.000000000000000E+20
 20
1.000000000000000E+20
 30
1.000000000000000E+20
  9
$EXTMAX
 10
-1.000000000000000E+20
 20
-1.000000000000000E+20
 30
-1.000000000000000E+20
  9
$LIMMIN
 10
0.0
 20
0.0
  9
$LIMMAX
 10
12.0
 20
9.0
  9
$ORTHOMODE
 70
     0
  9
$REGENMODE
 70
     1
  9
$FILLMODE
 70
     1
  9
$QTEXTMODE
 70
     0
  9
$MIRRTEXT
 70
     1
  9
$DRAGMODE
 70
     2
  9
$LTSCALE
 40
1.0
  9
$OSMODE
 70
    37
  9
$ATTMODE
 70
     1
  9
$TEXTSIZE
 40
0.2
  9
$TRACEWID
 40
0.05
  9
$TEXTSTYLE
  7
STANDARD
  9
$CLAYER
  8
0
  9
$CELTYPE
  6
BYLAYER
  9
$CECOLOR
 62
   256
  9
$DIMSCALE
 40
1.0
  9
$DIMASZ
 40
0.18
  9
$DIMEXO
 40
0.0625
  9
$DIMDLI
 40
0.38
  9
$DIMRND
 40
0.0
  9
$DIMDLE
 40
0.0
  9
$DIMEXE
 40
0.18
  9
$DIMTP
 40
0.0
  9
$DIMTM
 40
0.0
  9
$DIMTXT
 40
0.18
  9
$DIMCEN
 40
0.09
  9
$DIMTSZ
 40
0.0
  9
$DIMTOL
 70
     0
  9
$DIMLIM
 70
     0
  9
$DIMTIH
 70
     1
  9
$DIMTOH
 70
     1
  9
$DIMSE1
 70
     0
  9
$DIMSE2
 70
     0
  9
$DIMTAD
 70
     0
  9
$DIMZIN
 70
     0
  9
$DIMBLK
  1

  9
$DIMASO
 70
     1
  9
$DIMSHO
 70
     1
  9
$DIMPOST
  1

  9
$DIMAPOST
  1

  9
$DIMALT
 70
     0
  9
$DIMALTD
 70
     2
  9
$DIMALTF
 40
0.0393700787401575
  9
$DIMLFAC
 40
1.0
  9
$DIMTOFL
 70
     0
  9
$DIMTVP
 40
0.0
  9
$DIMTIX
 70
     0
  9
$DIMSOXD
 70
     0
  9
$DIMSAH
 70
     0
  9
$DIMBLK1
  1

  9
$DIMBLK2
  1

  9
$DIMSTYLE
  2
STANDARD
  9
$DIMCLRD
 70
     0
  9
$DIMCLRE
 70
     0
  9
$DIMCLRT
 70
     0
  9
$DIMTFAC
 40
1.0
  9
$DIMGAP
 40
0.09
  9
$LUNITS
 70
     2
  9
$LUPREC
 70
     4
  9
$SKETCHINC
 40
0.1
  9
$FILLETRAD
 40
0.5
  9
$AUNITS
 70
     0
  9
$AUPREC
 70
     0
  9
$MENU
  1
.
  9
$ELEVATION
 40
0.0
  9
$PELEVATION
 40
0.0
  9
$THICKNESS
 40
0.0
  9
$LIMCHECK
 70
     0
  9
$CHAMFERA
 40
0.0
  9
$CHAMFERB
 40
0.0
  9
$SKPOLY
 70
     0
  9
$TDCREATE
 40
2459439.248633611
  9
$TDUPDATE
 40
2459439.248633623
  9
$TDINDWG
 40
0.0000000116
  9
$TDUSRTIMER
 40
0.0000000116
  9
$USRTIMER
 70
     1
  9
$ANGBASE
 50
0.0
  9
$ANGDIR
 70
     0
  9
$PDMODE
 70
     0
  9
$PDSIZE
 40
0.0
  9
$PLINEWID
 40
0.0
  9
$COORDS
 70
     1
  9
$SPLFRAME
 70
     0
  9
$SPLINETYPE
 70
     6
  9
$SPLINESEGS
 70
     8
  9
$ATTDIA
 70
     0
  9
$ATTREQ
 70
     1
  9
$HANDLING
 70
     1
  9
$HANDSEED
  5
10000119
  9
$SURFTAB1
 70
     6
  9
$SURFTAB2
 70
     6
  9
$SURFTYPE
 70
     6
  9
$SURFU
 70
     6
  9
$SURFV
 70
     6
  9
$UCSNAME
  2

  9
$UCSORG
 10
0.0
 20
0.0
 30
0.0
  9
$UCSXDIR
 10
1.0
 20
0.0
 30
0.0
  9
$UCSYDIR
 10
0.0
 20
1.0
 30
0.0
  9
$PUCSNAME
  2

  9
$PUCSORG
 10
0.0
 20
0.0
 30
0.0
  9
$PUCSXDIR
 10
1.0
 20
0.0
 30
0.0
  9
$PUCSYDIR
 10
0.0
 20
1.0
 30
0.0
  9
$USERI1
 70
     0
  9
$USERI2
 70
     0
  9
$USERI3
 70
     0
  9
$USERI4
 70
     0
  9
$USERI5
 70
     0
  9
$USERR1
 40
0.0
  9
$USERR2
 40
0.0
  9
$USERR3
 40
0.0
  9
$USERR4
 40
0.0
  9
$USERR5
 40
0.0
  9
$WORLDVIEW
 70
     1
  9
$SHADEDGE
 70
     3
  9
$SHADEDIF
 70
    70
  9
$TILEMODE
 70
     1
  9
$MAXACTVP
 70
    64
  9
$PLIMCHECK
 70
     0
  9
$PEXTMIN
 10
1.000000000000000E+20
 20
1.000000000000000E+20
 30
1.000000000000000E+20
  9
$PEXTMAX
 10
-1.000000000000000E+20
 20
-1.000000000000000E+20
 30
-1.000000000000000E+20
  9
$PLIMMIN
 10
0.0
 20
0.0
  9
$PLIMMAX
 10
12.0
 20
9.0
  9
$UNITMODE
 70
     0
  9
$VISRETAIN
 70
     1
  9
$PLINEGEN
 70
     0
  9
$PSLTSCALE
 70
     1
  0
ENDSEC
  0
SECTION
  2
TABLES
  0
TABLE
  2
VPORT
 70
     1
  0
VPORT
  2
*ACTIVE
 70
     0
 10
0.0
 20
0.0
 11
1.0
 21
1.0
 12
10.42990654205607
 22
4.5
 13
0.0
 23
0.0
 14
0.5
 24
0.5
 15
0.5
 25
0.5
 16
0.0
 26
0.0
 36
1.0
 17
0.0
 27
0.0
 37
0.0
 40
9.0
 41
1.972972972850329
 42
50.0
 43
0.0
 44
0.0
 50
0.0
 51
0.0
 71
     0
 72
   100
 73
     1
 74
     3
 75
     0
 76
     0
 77
     0
 78
     0
  0
ENDTAB
  0
TABLE
  2
LTYPE
 70
     7
  0
LTYPE
  2
CONTINUOUS
 70
     0
  3
Solid line
 72
    65
 73
     0
 40
0.0
  0
LTYPE
  2
ONS_PHANTOM
 70
     0
  3
Onshape Phantom line ______ __ __ ______
 72
    65
 73
     6
 40
0.4999999999999999
 49
0.25
 49
-0.05
 49
0.05
 49
-0.05
 49
0.05
 49
-0.05
  0
LTYPE
  2
CENTER
 70
     0
  3
Center line ____ _ ____ _ ____ _
 72
    65
 73
     4
 40
0.7199999999999999
 49
0.45
 49
-0.09
 49
0.09
 49
-0.09
  0
LTYPE
  2
DASHED
 70
     0
  3
Dashed line __ __ __ __ __
 72
    65
 73
     2
 40
0.75
 49
0.5
 49
-0.25
  0
LTYPE
  2
ONS_DASHDOT
 70
     0
  3
Onshape Dashed with Dot _ . ____ . ____
 72
    65
 73
     4
 40
0.71
 49
0.5
 49
-0.1
 49
0.01
 49
-0.1
  0
LTYPE
  2
ONS_DOTTED
 70
     0
  3
Onshape Dotted line . . . . . . .
 72
    65
 73
     2
 40
0.11
 49
0.01
 49
-0.1
  0
LTYPE
  2
HIDDEN
 70
     0
  3
Hidden line ____ ____ ____ ____ 
 72
    65
 73
     2
 40
0.15
 49
0.1
 49
-0.05
  0
ENDTAB
  0
TABLE
  2
LAYER
 70
    39
  0
LAYER
  2
0
 70
     0
 62
     7
  6
CONTINUOUS
  0
LAYER
  2
SECTION_CUTTING_LINE
 70
     0
 62
     7
  6
ONS_PHANTOM
  0
LAYER
  2
DETAIL_VIEW_BORDER
 70
     0
 62
     7
  6
CONTINUOUS
  0
LAYER
  2
DETAIL_VIEW_PARENT_BORDER
 70
     0
 62
     7
  6
ONS_PHANTOM
  0
LAYER
  2
TEXT
 70
     0
 62
     7
  6
CONTINUOUS
  0
LAYER
  2
SKETCHED_GEOMETRY
 70
     0
 62
    -7
  6
CONTINUOUS
  0
LAYER
  2
VIRTUAL_SHARPS
 70
     0
 62
    -7
  6
CONTINUOUS
  0
LAYER
  2
CENTERLINES
 70
     0
 62
    -7
  6
CENTER
  0
LAYER
  2
CENTERMARKS
 70
     0
 62
    -7
  6
CONTINUOUS
  0
LAYER
  2
TABLES
 70
     0
 62
     7
  6
CONTINUOUS
  0
LAYER
  2
IMAGES
 70
     0
 62
    -7
  6
CONTINUOUS
  0
LAYER
  2
ANNOTATION_LINES
 70
     0
 62
    -7
  6
CONTINUOUS
  0
LAYER
  2
ANNOTATION_TEXT
 70
     0
 62
    -7
  6
CONTINUOUS
  0
LAYER
  2
SIDE_THREAD_SYMBOLS
 70
     0
 62
     7
  6
HIDDEN
  0
LAYER
  2
SIDE_THREAD_SYMBOLS_HIDDEN
 70
     0
 62
    -7
  6
HIDDEN
  0
LAYER
  2
SURFACE_THREAD_SYMBOLS
 70
     0
 62
     7
  6
HIDDEN
  0
LAYER
  2
SURFACE_THREAD_SYMBOLS_ON_
 70
     0
 62
     7
  6
HIDDEN
  0
LAYER
  2
SURFACE_THREAD_SYMBOLS_HID
 70
     0
 62
    -7
  6
HIDDEN
  0
LAYER
  2
BLIND_THREAD_SYMBOLS
 70
     0
 62
     7
  6
CONTINUOUS
  0
LAYER
  2
BLIND_THREAD_SYMBOLS_HIDDE
 70
     0
 62
    -7
  6
HIDDEN
  0
LAYER
  2
EXPLODE_LINES
 70
     0
 62
     7
  6
ONS_PHANTOM
  0
LAYER
  2
HIDDEN_EXPLODE_LINES
 70
     0
 62
    -7
  6
ONS_PHANTOM
  0
LAYER
  2
BREAK_LINES
 70
     0
 62
    -7
  6
CONTINUOUS
  0
LAYER
  2
SHEETMETAL_BEND_LINES_UP
 70
     0
 62
     7
  6
CENTER
  0
LAYER
  2
SHEETMETAL_BEND_LINES_DOWN
 70
     0
 62
     7
  6
CENTER
  0
LAYER
  2
SHEETMETAL_BEND_TANGENT_LI
 70
     0
 62
     7
  6
CONTINUOUS
  0
LAYER
  2
SHEETMETAL_CUT_LINES
 70
     0
 62
     7
  6
CONTINUOUS
  0
LAYER
  2
REGION_ASSOC_POINTS
 70
     0
 62
    -7
  6
CONTINUOUS
  0
LAYER
  2
HIDDEN
 70
     0
 62
    -7
  6
HIDDEN
  0
LAYER
  2
VISIBLE
 70
     0
 62
     7
  6
CONTINUOUS
  0
LAYER
  2
MODELSKETCH_VISIBLE
 70
     0
 62
     7
  6
CONTINUOUS
  0
LAYER
  2
MODELSKETCH_POINT
 70
     0
 62
     7
  6
CONTINUOUS
  0
LAYER
  2
MODELSKETCH_CONSTRUCTION
 70
     0
 62
    -7
  6
CENTER
  0
LAYER
  2
HIDDEN_BASE_VIEW
 70
     0
 62
     7
  6
CONTINUOUS
  0
LAYER
  2
TANGENT_LINES
 70
     0
 62
    -7
  6
CONTINUOUS
  0
LAYER
  2
TANGENT_HIDDEN
 70
     0
 62
    -7
  6
HIDDEN
  0
LAYER
  2
INVISIBLE_LINES
 70
     0
 62
    -7
  6
CONTINUOUS
  0
LAYER
  2
VIEW_HATCHES
 70
     0
 62
    -7
  6
CONTINUOUS
  0
LAYER
  2
SECTION_JOG_LINES
 70
     0
 62
    -7
  6
CONTINUOUS
  0
ENDTAB
  0
TABLE
  2
STYLE
 70
     2
  0
STYLE
  2
STANDARD
 70
     0
 40
0.0
 41
1.0
 50
0.0
 71
     0
 42
0.2
  3
txt
  4

  0
STYLE
  2
TTFSTYLE
 70
     0
 40
0.0
 41
1.0
 50
0.0
 71
     0
 42
0.2
  3
Verdana.ttf
  4

  0
ENDTAB
  0
TABLE
  2
VIEW
 70
     0
  0
ENDTAB
  0
TABLE
  2
UCS
 70
     0
  0
ENDTAB
  0
TABLE
  2
APPID
 70
     1
  0
APPID
  2
ACAD
 70
     0
  0
ENDTAB
  0
TABLE
  2
DIMSTYLE
 70
     1
  0
DIMSTYLE
  2
STANDARD
 70
     0
  3

  4

  5

  6

  7

 40
1.0
 41
0.18
 42
0.0625
 43
0.38
 44
0.18
 45
0.0
 46
0.0
 47
0.0
 48
0.0
140
0.18
141
0.09
142
0.0
143
25.4
144
1.0
145
0.0
146
1.0
147
0.09
 71
     0
 72
     0
 73
     1
 74
     1
 75
     0
 76
     0
 77
     0
 78
     0
170
     0
171
     2
172
     0
173
     0
174
     0
175
     0
176
     0
177
     0
178
     0
  0
ENDTAB
  0
ENDSEC
  0
SECTION
  2
BLOCKS
  0
BLOCK
  8
0
  2
$MODEL_SPACE
 70
     0
 10
0.0
 20
0.0
 30
0.0
  3
$MODEL_SPACE
  1

  0
ENDBLK
  5
21
  8
0
  0
BLOCK
 67
     1
  8
0
  2
$PAPER_SPACE
 70
     0
 10
0.0
 20
0.0
 30
0.0
  3
$PAPER_SPACE
  1

  0
ENDBLK
  5
1D
 67
     1
  8
0
  0
ENDSEC
  0
SECTION
  2
ENTITIES
  0
LINE
  5
10000050
  8
VISIBLE
 10
-2.500004115233417
 20
-124.7146316343975
 30
0.0
 11
2.499995884766584
 21
-124.7146316343975
 31
0.0
  0
LINE
  5
10000053
  8
VISIBLE
 10
2.499995884766584
 20
-124.7146316343975
 30
0.0
 11
2.499995884766584
 21
-129.7146316343975
 31
0.0
  0
LINE
  5
10000056
  8
VISIBLE
 10
-2.500004115233413
 20
-129.7146316343975
 30
0.0
 11
2.499995884766584
 21
-129.7146316343975
 31
0.0
  0
LINE
  5
10000059
  8
VISIBLE
 10
-2.500004115233417
 20
-124.7146316343975
 30
0.0
 11
-2.500004115233413
 21
-129.7146316343975
 31
0.0
  0
LINE
  5
1000005C
  8
VISIBLE
 10
-2.500004115233417
 20
-109.5469216343975
 30
0.0
 11
2.499995884766584
 21
-109.5469216343975
 31
0.0
  0
LINE
  5
1000005F
  8
VISIBLE
 10
2.499995884766584
 20
-109.5469216343975
 30
0.0
 11
2.499995884766584
 21
-114.5469216343975
 31
0.0
  0
LINE
  5
10000062
  8
VISIBLE
 10
-2.500004115233413
 20
-114.5469216343975
 30
0.0
 11
2.499995884766584
 21
-114.5469216343975
 31
0.0
  0
LINE
  5
10000065
  8
VISIBLE
 10
-2.500004115233417
 20
-109.5469216343975
 30
0.0
 11
-2.500004115233413
 21
-114.5469216343975
 31
0.0
  0
LINE
  5
10000068
  8
VISIBLE
 10
16.34248588476659
 20
-110.3792116343975
 30
0.0
 11
21.34248588476659
 21
-110.3792116343975
 31
0.0
  0
LINE
  5
1000006B
  8
VISIBLE
 10
21.34248588476659
 20
-110.3792116343975
 30
0.0
 11
21.34248588476659
 21
-115.3792116343975
 31
0.0
  0
LINE
  5
1000006E
  8
VISIBLE
 10
16.34248588476659
 20
-115.3792116343975
 30
0.0
 11
21.34248588476659
 21
-115.3792116343975
 31
0.0
  0
LINE
  5
10000071
  8
VISIBLE
 10
16.34248588476659
 20
-110.3792116343975
 30
0.0
 11
16.34248588476659
 21
-115.3792116343975
 31
0.0
  0
LINE
  5
10000074
  8
VISIBLE
 10
-21.34249411523342
 20
-110.3792116343975
 30
0.0
 11
-16.34249411523342
 21
-110.3792116343975
 31
0.0
  0
LINE
  5
10000077
  8
VISIBLE
 10
-16.34249411523342
 20
-110.3792116343975
 30
0.0
 11
-16.34249411523342
 21
-115.3792116343975
 31
0.0
  0
LINE
  5
1000007A
  8
VISIBLE
 10
-21.34249411523342
 20
-115.3792116343975
 30
0.0
 11
-16.34249411523342
 21
-115.3792116343975
 31
0.0
  0
LINE
  5
1000007D
  8
VISIBLE
 10
-21.34249411523342
 20
-110.3792116343975
 30
0.0
 11
-21.34249411523342
 21
-115.3792116343975
 31
0.0
  0
LINE
  5
10000080
  8
VISIBLE
 10
16.34248588476659
 20
-94.3792116343975
 30
0.0
 11
21.34248588476659
 21
-94.3792116343975
 31
0.0
  0
LINE
  5
10000083
  8
VISIBLE
 10
21.34248588476659
 20
-94.3792116343975
 30
0.0
 11
21.34248588476659
 21
-99.37921163439752
 31
0.0
  0
LINE
  5
10000086
  8
VISIBLE
 10
16.34248588476659
 20
-99.37921163439752
 30
0.0
 11
21.34248588476659
 21
-99.37921163439752
 31
0.0
  0
LINE
  5
10000089
  8
VISIBLE
 10
16.34248588476659
 20
-94.3792116343975
 30
0.0
 11
16.34248588476659
 21
-99.37921163439752
 31
0.0
  0
LINE
  5
1000008C
  8
VISIBLE
 10
-2.500004115233417
 20
-94.3792116343975
 30
0.0
 11
2.499995884766584
 21
-94.3792116343975
 31
0.0
  0
LINE
  5
1000008F
  8
VISIBLE
 10
2.499995884766584
 20
-94.3792116343975
 30
0.0
 11
2.499995884766584
 21
-99.37921163439752
 31
0.0
  0
LINE
  5
10000092
  8
VISIBLE
 10
-2.500004115233413
 20
-99.37921163439752
 30
0.0
 11
2.499995884766584
 21
-99.37921163439752
 31
0.0
  0
LINE
  5
10000095
  8
VISIBLE
 10
-2.500004115233417
 20
-94.3792116343975
 30
0.0
 11
-2.500004115233413
 21
-99.37921163439752
 31
0.0
  0
LINE
  5
10000098
  8
VISIBLE
 10
-21.34249411523342
 20
-94.3792116343975
 30
0.0
 11
-16.34249411523342
 21
-94.3792116343975
 31
0.0
  0
LINE
  5
1000009B
  8
VISIBLE
 10
-16.34249411523342
 20
-94.3792116343975
 30
0.0
 11
-16.34249411523342
 21
-99.37921163439752
 31
0.0
  0
LINE
  5
1000009E
  8
VISIBLE
 10
-21.34249411523342
 20
-99.37921163439752
 30
0.0
 11
-16.34249411523342
 21
-99.37921163439752
 31
0.0
  0
LINE
  5
100000A1
  8
VISIBLE
 10
-21.34249411523342
 20
-94.3792116343975
 30
0.0
 11
-21.34249411523342
 21
-99.37921163439752
 31
0.0
  0
LINE
  5
100000A4
  8
VISIBLE
 10
4.500000000000049
 20
-90.33382938362074
 30
0.0
 11
4.500000000000049
 21
-93.88408809900284
 31
0.0
  0
ARC
  5
100000A7
  8
VISIBLE
 10
7.500000000000049
 20
-90.33382938362074
 30
0.0
 40
3.0
 50
159.635865193682
 51
180.0
  0
ARC
  5
100000AA
  8
VISIBLE
 10
0.000000000000007
 20
-87.54994720220566
 30
0.0
 40
5.000000000000061
 50
339.6358651936818
 51
200.3641348063181
  0
ARC
  5
100000AD
  8
VISIBLE
 10
-7.500000000000043
 20
-90.33382938362072
 30
0.0
 40
3.0
 50
0.0
 51
20.36413480631801
  0
LINE
  5
100000B0
  8
VISIBLE
 10
-4.500000000000042
 20
-90.33382938362072
 30
0.0
 11
-4.500000000000042
 21
-93.88408809900284
 31
0.0
  0
ARC
  5
100000B3
  8
VISIBLE
 10
-7.000000000000043
 20
-93.88408809900284
 30
0.0
 40
2.500000000000001
 50
270.0
 51
0.0
  0
LINE
  5
100000B6
  8
VISIBLE
 10
-7.000000000000043
 20
-96.38408809900284
 30
0.0
 11
-11.84249411523337
 21
-96.38408809900284
 31
0.0
  0
ARC
  5
100000B9
  8
VISIBLE
 10
-11.84249411523337
 20
-93.88408809900284
 30
0.0
 40
2.500000000000001
 50
267.9532869023261
 51
270.0
  0
ARC
  5
100000BC
  8
VISIBLE
 10
-11.86035125809052
 20
-94.38376911970401
 30
0.0
 40
2.0
 50
175.9065738046553
 51
267.9532869023261
  0
ARC
  5
100000BF
  8
VISIBLE
 10
-18.84249411523343
 20
-93.88408809900282
 30
0.0
 40
5.000000000000055
 50
355.9065738046547
 51
200.3641348063192
  0
ARC
  5
100000C2
  8
VISIBLE
 10
-26.34249411523342
 20
-96.66797028041803
 30
0.0
 40
3.0
 50
0.0
 51
20.36413480631913
  0
LINE
  5
100000C5
  8
VISIBLE
 10
-23.34249411523342
 20
-96.66797028041803
 30
0.0
 11
-23.34249411523342
 21
-113.090452988377
 31
0.0
  0
ARC
  5
100000C8
  8
VISIBLE
 10
-26.34249411523342
 20
-113.090452988377
 30
0.0
 40
3.0
 50
339.6358651936808
 51
0.0
  0
ARC
  5
100000CB
  8
VISIBLE
 10
-18.84249411523344
 20
-115.8743351697922
 30
0.0
 40
5.000000000000052
 50
159.6358651936808
 51
4.093426195345149
  0
ARC
  5
100000CE
  8
VISIBLE
 10
-11.86035125809052
 20
-115.374654149091
 30
0.0
 40
2.0
 50
92.04671309767447
 51
184.0934261953447
  0
ARC
  5
100000D1
  8
VISIBLE
 10
-11.84249411523336
 20
-115.8743351697922
 30
0.0
 40
2.500000000000002
 50
90.00000000000006
 51
92.0467130976745
  0
LINE
  5
100000D4
  8
VISIBLE
 10
-7.000000000000043
 20
-113.3743351697922
 30
0.0
 11
-11.84249411523337
 21
-113.3743351697922
 31
0.0
  0
ARC
  5
100000D7
  8
VISIBLE
 10
-7.000000000000043
 20
-115.8743351697922
 30
0.0
 40
2.500000000000001
 50
0.0
 51
90.0
  0
LINE
  5
100000DA
  8
VISIBLE
 10
-4.500000000000042
 20
-115.8743351697922
 30
0.0
 11
-4.500000000000042
 21
-129.9295243374239
 31
0.0
  0
ARC
  5
100000DD
  8
VISIBLE
 10
-7.500000000000043
 20
-129.9295243374239
 30
0.0
 40
3.0
 50
318.5903778907291
 51
0.0
  0
ARC
  5
100000E0
  8
VISIBLE
 10
0.0000000000000132
 20
-136.5439026150854
 30
0.0
 40
7.000000000000059
 50
138.5903778907293
 51
41.40962210927073
  0
ARC
  5
100000E3
  8
VISIBLE
 10
7.500000000000049
 20
-129.9295243374239
 30
0.0
 40
3.0
 50
180.0
 51
221.4096221092711
  0
LINE
  5
100000E6
  8
VISIBLE
 10
4.500000000000049
 20
-115.8743351697922
 30
0.0
 11
4.500000000000049
 21
-129.9295243374239
 31
0.0
  0
ARC
  5
100000E9
  8
VISIBLE
 10
7.00000000000005
 20
-115.8743351697922
 30
0.0
 40
2.500000000000001
 50
90.0
 51
180.0
  0
LINE
  5
100000EC
  8
VISIBLE
 10
11.84249411523339
 20
-113.3743351697922
 30
0.0
 11
7.00000000000005
 21
-113.3743351697922
 31
0.0
  0
ARC
  5
100000EF
  8
VISIBLE
 10
11.84249411523339
 20
-115.8743351697922
 30
0.0
 40
2.499999999999991
 50
87.95328690232667
 51
90.0
  0
ARC
  5
100000F2
  8
VISIBLE
 10
11.86035125809054
 20
-115.374654149091
 30
0.0
 40
2.0
 50
355.9065738046553
 51
87.95328690232667
  0
ARC
  5
100000F5
  8
VISIBLE
 10
18.84249411523346
 20
-115.8743351697922
 30
0.0
 40
5.000000000000057
 50
175.9065738046547
 51
20.36413480631862
  0
ARC
  5
100000F8
  8
VISIBLE
 10
26.34249411523348
 20
-113.0904529883771
 30
0.0
 40
3.0
 50
180.0
 51
200.3641348063183
  0
LINE
  5
100000FB
  8
VISIBLE
 10
23.34249411523348
 20
-113.0904529883771
 30
0.0
 11
23.34249411523348
 21
-96.66797028041789
 31
0.0
  0
ARC
  5
100000FE
  8
VISIBLE
 10
26.34249411523348
 20
-96.66797028041789
 30
0.0
 40
3.0
 50
159.635865193682
 51
180.0
  0
ARC
  5
10000101
  8
VISIBLE
 10
18.84249411523344
 20
-93.88408809900282
 30
0.0
 40
5.000000000000053
 50
339.6358651936819
 51
184.0934261953453
  0
ARC
  5
10000104
  8
VISIBLE
 10
11.86035125809053
 20
-94.38376911970403
 30
0.0
 40
2.0
 50
272.0467130976722
 51
4.093426195345098
  0
ARC
  5
10000107
  8
VISIBLE
 10
11.84249411523339
 20
-93.88408809900285
 30
0.0
 40
2.499999999999991
 50
270.0
 51
272.0467130976722
  0
LINE
  5
1000010A
  8
VISIBLE
 10
11.84249411523339
 20
-96.38408809900284
 30
0.0
 11
7.00000000000005
 21
-96.38408809900284
 31
0.0
  0
ARC
  5
1000010D
  8
VISIBLE
 10
7.00000000000005
 20
-93.88408809900284
 30
0.0
 40
2.500000000000001
 50
180.0
 51
270.0
  0
ENDSEC
  0
EOF
