  0
SECTION
  2
HEADER
  9
$ACADVER
  1
AC1009
  9
$DWGCODEPAGE
  3
ansi_1252
  9
$INSBASE
 10
0.0
 20
0.0
 30
0.0
  9
$EXTMIN
 10
1.000000000000000E+20
 20
1.000000000000000E+20
 30
1.000000000000000E+20
  9
$EXTMAX
 10
-1.000000000000000E+20
 20
-1.000000000000000E+20
 30
-1.000000000000000E+20
  9
$LIMMIN
 10
0.0
 20
0.0
  9
$LIMMAX
 10
12.0
 20
9.0
  9
$ORTHOMODE
 70
     0
  9
$REGENMODE
 70
     1
  9
$FILLMODE
 70
     1
  9
$QTEXTMODE
 70
     0
  9
$MIRRTEXT
 70
     1
  9
$DRAGMODE
 70
     2
  9
$LTSCALE
 40
1.0
  9
$OSMODE
 70
    37
  9
$ATTMODE
 70
     1
  9
$TEXTSIZE
 40
0.2
  9
$TRACEWID
 40
0.05
  9
$TEXTSTYLE
  7
STANDARD
  9
$CLAYER
  8
0
  9
$CELTYPE
  6
BYLAYER
  9
$CECOLOR
 62
   256
  9
$DIMSCALE
 40
1.0
  9
$DIMASZ
 40
0.18
  9
$DIMEXO
 40
0.0625
  9
$DIMDLI
 40
0.38
  9
$DIMRND
 40
0.0
  9
$DIMDLE
 40
0.0
  9
$DIMEXE
 40
0.18
  9
$DIMTP
 40
0.0
  9
$DIMTM
 40
0.0
  9
$DIMTXT
 40
0.18
  9
$DIMCEN
 40
0.09
  9
$DIMTSZ
 40
0.0
  9
$DIMTOL
 70
     0
  9
$DIMLIM
 70
     0
  9
$DIMTIH
 70
     1
  9
$DIMTOH
 70
     1
  9
$DIMSE1
 70
     0
  9
$DIMSE2
 70
     0
  9
$DIMTAD
 70
     0
  9
$DIMZIN
 70
     0
  9
$DIMBLK
  1

  9
$DIMASO
 70
     1
  9
$DIMSHO
 70
     1
  9
$DIMPOST
  1

  9
$DIMAPOST
  1

  9
$DIMALT
 70
     0
  9
$DIMALTD
 70
     2
  9
$DIMALTF
 40
0.0393700787401575
  9
$DIMLFAC
 40
1.0
  9
$DIMTOFL
 70
     0
  9
$DIMTVP
 40
0.0
  9
$DIMTIX
 70
     0
  9
$DIMSOXD
 70
     0
  9
$DIMSAH
 70
     0
  9
$DIMBLK1
  1

  9
$DIMBLK2
  1

  9
$DIMSTYLE
  2
STANDARD
  9
$DIMCLRD
 70
     0
  9
$DIMCLRE
 70
     0
  9
$DIMCLRT
 70
     0
  9
$DIMTFAC
 40
1.0
  9
$DIMGAP
 40
0.09
  9
$LUNITS
 70
     2
  9
$LUPREC
 70
     4
  9
$SKETCHINC
 40
0.1
  9
$FILLETRAD
 40
0.5
  9
$AUNITS
 70
     0
  9
$AUPREC
 70
     0
  9
$MENU
  1
.
  9
$ELEVATION
 40
0.0
  9
$PELEVATION
 40
0.0
  9
$THICKNESS
 40
0.0
  9
$LIMCHECK
 70
     0
  9
$CHAMFERA
 40
0.0
  9
$CHAMFERB
 40
0.0
  9
$SKPOLY
 70
     0
  9
$TDCREATE
 40
2459439.248487928
  9
$TDUPDATE
 40
2459439.24848794
  9
$TDINDWG
 40
0.0000000116
  9
$TDUSRTIMER
 40
0.0000000116
  9
$USRTIMER
 70
     1
  9
$ANGBASE
 50
0.0
  9
$ANGDIR
 70
     0
  9
$PDMODE
 70
     0
  9
$PDSIZE
 40
0.0
  9
$PLINEWID
 40
0.0
  9
$COORDS
 70
     1
  9
$SPLFRAME
 70
     0
  9
$SPLINETYPE
 70
     6
  9
$SPLINESEGS
 70
     8
  9
$ATTDIA
 70
     0
  9
$ATTREQ
 70
     1
  9
$HANDLING
 70
     1
  9
$HANDSEED
  5
10000243
  9
$SURFTAB1
 70
     6
  9
$SURFTAB2
 70
     6
  9
$SURFTYPE
 70
     6
  9
$SURFU
 70
     6
  9
$SURFV
 70
     6
  9
$UCSNAME
  2

  9
$UCSORG
 10
0.0
 20
0.0
 30
0.0
  9
$UCSXDIR
 10
1.0
 20
0.0
 30
0.0
  9
$UCSYDIR
 10
0.0
 20
1.0
 30
0.0
  9
$PUCSNAME
  2

  9
$PUCSORG
 10
0.0
 20
0.0
 30
0.0
  9
$PUCSXDIR
 10
1.0
 20
0.0
 30
0.0
  9
$PUCSYDIR
 10
0.0
 20
1.0
 30
0.0
  9
$USERI1
 70
     0
  9
$USERI2
 70
     0
  9
$USERI3
 70
     0
  9
$USERI4
 70
     0
  9
$USERI5
 70
     0
  9
$USERR1
 40
0.0
  9
$USERR2
 40
0.0
  9
$USERR3
 40
0.0
  9
$USERR4
 40
0.0
  9
$USERR5
 40
0.0
  9
$WORLDVIEW
 70
     1
  9
$SHADEDGE
 70
     3
  9
$SHADEDIF
 70
    70
  9
$TILEMODE
 70
     1
  9
$MAXACTVP
 70
    64
  9
$PLIMCHECK
 70
     0
  9
$PEXTMIN
 10
1.000000000000000E+20
 20
1.000000000000000E+20
 30
1.000000000000000E+20
  9
$PEXTMAX
 10
-1.000000000000000E+20
 20
-1.000000000000000E+20
 30
-1.000000000000000E+20
  9
$PLIMMIN
 10
0.0
 20
0.0
  9
$PLIMMAX
 10
12.0
 20
9.0
  9
$UNITMODE
 70
     0
  9
$VISRETAIN
 70
     1
  9
$PLINEGEN
 70
     0
  9
$PSLTSCALE
 70
     1
  0
ENDSEC
  0
SECTION
  2
TABLES
  0
TABLE
  2
VPORT
 70
     1
  0
VPORT
  2
*ACTIVE
 70
     0
 10
0.0
 20
0.0
 11
1.0
 21
1.0
 12
10.42990654205607
 22
4.5
 13
0.0
 23
0.0
 14
0.5
 24
0.5
 15
0.5
 25
0.5
 16
0.0
 26
0.0
 36
1.0
 17
0.0
 27
0.0
 37
0.0
 40
9.0
 41
1.972972972850329
 42
50.0
 43
0.0
 44
0.0
 50
0.0
 51
0.0
 71
     0
 72
   100
 73
     1
 74
     3
 75
     0
 76
     0
 77
     0
 78
     0
  0
ENDTAB
  0
TABLE
  2
LTYPE
 70
     7
  0
LTYPE
  2
CONTINUOUS
 70
     0
  3
Solid line
 72
    65
 73
     0
 40
0.0
  0
LTYPE
  2
ONS_PHANTOM
 70
     0
  3
Onshape Phantom line ______ __ __ ______
 72
    65
 73
     6
 40
0.4999999999999999
 49
0.25
 49
-0.05
 49
0.05
 49
-0.05
 49
0.05
 49
-0.05
  0
LTYPE
  2
CENTER
 70
     0
  3
Center line ____ _ ____ _ ____ _
 72
    65
 73
     4
 40
0.7199999999999999
 49
0.45
 49
-0.09
 49
0.09
 49
-0.09
  0
LTYPE
  2
DASHED
 70
     0
  3
Dashed line __ __ __ __ __
 72
    65
 73
     2
 40
0.75
 49
0.5
 49
-0.25
  0
LTYPE
  2
ONS_DASHDOT
 70
     0
  3
Onshape Dashed with Dot _ . ____ . ____
 72
    65
 73
     4
 40
0.71
 49
0.5
 49
-0.1
 49
0.01
 49
-0.1
  0
LTYPE
  2
ONS_DOTTED
 70
     0
  3
Onshape Dotted line . . . . . . .
 72
    65
 73
     2
 40
0.11
 49
0.01
 49
-0.1
  0
LTYPE
  2
HIDDEN
 70
     0
  3
Hidden line ____ ____ ____ ____ 
 72
    65
 73
     2
 40
0.15
 49
0.1
 49
-0.05
  0
ENDTAB
  0
TABLE
  2
LAYER
 70
    39
  0
LAYER
  2
0
 70
     0
 62
     7
  6
CONTINUOUS
  0
LAYER
  2
SECTION_CUTTING_LINE
 70
     0
 62
     7
  6
ONS_PHANTOM
  0
LAYER
  2
DETAIL_VIEW_BORDER
 70
     0
 62
     7
  6
CONTINUOUS
  0
LAYER
  2
DETAIL_VIEW_PARENT_BORDER
 70
     0
 62
     7
  6
ONS_PHANTOM
  0
LAYER
  2
TEXT
 70
     0
 62
     7
  6
CONTINUOUS
  0
LAYER
  2
SKETCHED_GEOMETRY
 70
     0
 62
    -7
  6
CONTINUOUS
  0
LAYER
  2
VIRTUAL_SHARPS
 70
     0
 62
    -7
  6
CONTINUOUS
  0
LAYER
  2
CENTERLINES
 70
     0
 62
    -7
  6
CENTER
  0
LAYER
  2
CENTERMARKS
 70
     0
 62
    -7
  6
CONTINUOUS
  0
LAYER
  2
TABLES
 70
     0
 62
     7
  6
CONTINUOUS
  0
LAYER
  2
IMAGES
 70
     0
 62
    -7
  6
CONTINUOUS
  0
LAYER
  2
ANNOTATION_LINES
 70
     0
 62
    -7
  6
CONTINUOUS
  0
LAYER
  2
ANNOTATION_TEXT
 70
     0
 62
    -7
  6
CONTINUOUS
  0
LAYER
  2
SIDE_THREAD_SYMBOLS
 70
     0
 62
     7
  6
HIDDEN
  0
LAYER
  2
SIDE_THREAD_SYMBOLS_HIDDEN
 70
     0
 62
    -7
  6
HIDDEN
  0
LAYER
  2
SURFACE_THREAD_SYMBOLS
 70
     0
 62
     7
  6
HIDDEN
  0
LAYER
  2
SURFACE_THREAD_SYMBOLS_ON_
 70
     0
 62
     7
  6
HIDDEN
  0
LAYER
  2
SURFACE_THREAD_SYMBOLS_HID
 70
     0
 62
    -7
  6
HIDDEN
  0
LAYER
  2
BLIND_THREAD_SYMBOLS
 70
     0
 62
     7
  6
CONTINUOUS
  0
LAYER
  2
BLIND_THREAD_SYMBOLS_HIDDE
 70
     0
 62
    -7
  6
HIDDEN
  0
LAYER
  2
EXPLODE_LINES
 70
     0
 62
     7
  6
ONS_PHANTOM
  0
LAYER
  2
HIDDEN_EXPLODE_LINES
 70
     0
 62
    -7
  6
ONS_PHANTOM
  0
LAYER
  2
BREAK_LINES
 70
     0
 62
    -7
  6
CONTINUOUS
  0
LAYER
  2
SHEETMETAL_BEND_LINES_UP
 70
     0
 62
     7
  6
CENTER
  0
LAYER
  2
SHEETMETAL_BEND_LINES_DOWN
 70
     0
 62
     7
  6
CENTER
  0
LAYER
  2
SHEETMETAL_BEND_TANGENT_LI
 70
     0
 62
     7
  6
CONTINUOUS
  0
LAYER
  2
SHEETMETAL_CUT_LINES
 70
     0
 62
     7
  6
CONTINUOUS
  0
LAYER
  2
REGION_ASSOC_POINTS
 70
     0
 62
    -7
  6
CONTINUOUS
  0
LAYER
  2
HIDDEN
 70
     0
 62
    -7
  6
HIDDEN
  0
LAYER
  2
VISIBLE
 70
     0
 62
     7
  6
CONTINUOUS
  0
LAYER
  2
MODELSKETCH_VISIBLE
 70
     0
 62
     7
  6
CONTINUOUS
  0
LAYER
  2
MODELSKETCH_POINT
 70
     0
 62
     7
  6
CONTINUOUS
  0
LAYER
  2
MODELSKETCH_CONSTRUCTION
 70
     0
 62
    -7
  6
CENTER
  0
LAYER
  2
HIDDEN_BASE_VIEW
 70
     0
 62
     7
  6
CONTINUOUS
  0
LAYER
  2
TANGENT_LINES
 70
     0
 62
    -7
  6
CONTINUOUS
  0
LAYER
  2
TANGENT_HIDDEN
 70
     0
 62
    -7
  6
HIDDEN
  0
LAYER
  2
INVISIBLE_LINES
 70
     0
 62
    -7
  6
CONTINUOUS
  0
LAYER
  2
VIEW_HATCHES
 70
     0
 62
    -7
  6
CONTINUOUS
  0
LAYER
  2
SECTION_JOG_LINES
 70
     0
 62
    -7
  6
CONTINUOUS
  0
ENDTAB
  0
TABLE
  2
STYLE
 70
     2
  0
STYLE
  2
STANDARD
 70
     0
 40
0.0
 41
1.0
 50
0.0
 71
     0
 42
0.2
  3
txt
  4

  0
STYLE
  2
TTFSTYLE
 70
     0
 40
0.0
 41
1.0
 50
0.0
 71
     0
 42
0.2
  3
Verdana.ttf
  4

  0
ENDTAB
  0
TABLE
  2
VIEW
 70
     0
  0
ENDTAB
  0
TABLE
  2
UCS
 70
     0
  0
ENDTAB
  0
TABLE
  2
APPID
 70
     1
  0
APPID
  2
ACAD
 70
     0
  0
ENDTAB
  0
TABLE
  2
DIMSTYLE
 70
     1
  0
DIMSTYLE
  2
STANDARD
 70
     0
  3

  4

  5

  6

  7

 40
1.0
 41
0.18
 42
0.0625
 43
0.38
 44
0.18
 45
0.0
 46
0.0
 47
0.0
 48
0.0
140
0.18
141
0.09
142
0.0
143
25.4
144
1.0
145
0.0
146
1.0
147
0.09
 71
     0
 72
     0
 73
     1
 74
     1
 75
     0
 76
     0
 77
     0
 78
     0
170
     0
171
     2
172
     0
173
     0
174
     0
175
     0
176
     0
177
     0
178
     0
  0
ENDTAB
  0
ENDSEC
  0
SECTION
  2
BLOCKS
  0
BLOCK
  8
0
  2
$MODEL_SPACE
 70
     0
 10
0.0
 20
0.0
 30
0.0
  3
$MODEL_SPACE
  1

  0
ENDBLK
  5
21
  8
0
  0
BLOCK
 67
     1
  8
0
  2
$PAPER_SPACE
 70
     0
 10
0.0
 20
0.0
 30
0.0
  3
$PAPER_SPACE
  1

  0
ENDBLK
  5
1D
 67
     1
  8
0
  0
ENDSEC
  0
SECTION
  2
ENTITIES
  0
LINE
  5
10000050
  8
VISIBLE
 10
-10.69012439438648
 20
-52.48264475928765
 30
0.0
 11
-5.690124394386473
 21
-52.48264475928765
 31
0.0
  0
LINE
  5
10000053
  8
VISIBLE
 10
-5.690124394386473
 20
-52.48264475928765
 30
0.0
 11
-5.690124394386473
 21
-57.48264475928766
 31
0.0
  0
LINE
  5
10000056
  8
VISIBLE
 10
-10.69012439438646
 20
-57.48264475928766
 30
0.0
 11
-5.690124394386473
 21
-57.48264475928766
 31
0.0
  0
LINE
  5
10000059
  8
VISIBLE
 10
-10.69012439438648
 20
-52.48264475928765
 30
0.0
 11
-10.69012439438646
 21
-57.48264475928766
 31
0.0
  0
LINE
  5
1000005C
  8
VISIBLE
 10
5.628759150654098
 20
-52.48304736308548
 30
0.0
 11
10.6287591506541
 21
-52.48304736308548
 31
0.0
  0
LINE
  5
1000005F
  8
VISIBLE
 10
10.6287591506541
 20
-52.48304736308548
 30
0.0
 11
10.6287591506541
 21
-57.48304736308549
 31
0.0
  0
LINE
  5
10000062
  8
VISIBLE
 10
5.628759150654111
 20
-57.48304736308549
 30
0.0
 11
10.6287591506541
 21
-57.48304736308549
 31
0.0
  0
LINE
  5
10000065
  8
VISIBLE
 10
5.628759150654098
 20
-52.48304736308548
 30
0.0
 11
5.628759150654111
 21
-57.48304736308549
 31
0.0
  0
LINE
  5
10000068
  8
VISIBLE
 10
21.91378359936252
 20
-53.53259645750241
 30
0.0
 11
26.91378359936253
 21
-53.53259645750241
 31
0.0
  0
LINE
  5
1000006B
  8
VISIBLE
 10
26.91378359936253
 20
-53.53259645750241
 30
0.0
 11
26.91378359936253
 21
-58.53259645750241
 31
0.0
  0
LINE
  5
1000006E
  8
VISIBLE
 10
21.91378359936254
 20
-58.53259645750241
 30
0.0
 11
26.91378359936253
 21
-58.53259645750241
 31
0.0
  0
LINE
  5
10000071
  8
VISIBLE
 10
21.91378359936252
 20
-53.53259645750241
 30
0.0
 11
21.91378359936254
 21
-58.53259645750241
 31
0.0
  0
LINE
  5
10000074
  8
VISIBLE
 10
38.09468667243174
 20
-55.6478022815454
 30
0.0
 11
43.09468667243175
 21
-55.6478022815454
 31
0.0
  0
LINE
  5
10000077
  8
VISIBLE
 10
43.09468667243175
 20
-55.6478022815454
 30
0.0
 11
43.09468667243175
 21
-60.6478022815454
 31
0.0
  0
LINE
  5
1000007A
  8
VISIBLE
 10
38.09468667243176
 20
-60.6478022815454
 30
0.0
 11
43.09468667243175
 21
-60.6478022815454
 31
0.0
  0
LINE
  5
1000007D
  8
VISIBLE
 10
38.09468667243174
 20
-55.6478022815454
 30
0.0
 11
38.09468667243176
 21
-60.6478022815454
 31
0.0
  0
LINE
  5
10000080
  8
VISIBLE
 10
54.09338808351964
 20
-58.86226797624526
 30
0.0
 11
59.09338808351965
 21
-58.86226797624526
 31
0.0
  0
LINE
  5
10000083
  8
VISIBLE
 10
59.09338808351965
 20
-58.86226797624526
 30
0.0
 11
59.09338808351965
 21
-63.86226797624526
 31
0.0
  0
LINE
  5
10000086
  8
VISIBLE
 10
54.09338808351966
 20
-63.86226797624526
 30
0.0
 11
59.09338808351965
 21
-63.86226797624526
 31
0.0
  0
LINE
  5
10000089
  8
VISIBLE
 10
54.09338808351964
 20
-58.86226797624526
 30
0.0
 11
54.09338808351966
 21
-63.86226797624526
 31
0.0
  0
LINE
  5
1000008C
  8
VISIBLE
 10
69.81657642626237
 20
-63.22657275238758
 30
0.0
 11
74.81657642626239
 21
-63.22657275238758
 31
0.0
  0
LINE
  5
1000008F
  8
VISIBLE
 10
74.81657642626239
 20
-63.22657275238758
 30
0.0
 11
74.81657642626239
 21
-68.22657275238758
 31
0.0
  0
LINE
  5
10000092
  8
VISIBLE
 10
69.81657642626239
 20
-68.22657275238758
 30
0.0
 11
74.81657642626239
 21
-68.22657275238758
 31
0.0
  0
LINE
  5
10000095
  8
VISIBLE
 10
69.81657642626237
 20
-63.22657275238758
 30
0.0
 11
69.81657642626239
 21
-68.22657275238758
 31
0.0
  0
LINE
  5
10000098
  8
VISIBLE
 10
68.17229762741131
 20
-45.75156488687384
 30
0.0
 11
73.17229762741131
 21
-45.75156488687384
 31
0.0
  0
LINE
  5
1000009B
  8
VISIBLE
 10
73.17229762741131
 20
-45.75156488687384
 30
0.0
 11
73.17229762741131
 21
-50.75156488687385
 31
0.0
  0
LINE
  5
1000009E
  8
VISIBLE
 10
68.17229762741133
 20
-50.75156488687385
 30
0.0
 11
73.17229762741131
 21
-50.75156488687385
 31
0.0
  0
LINE
  5
100000A1
  8
VISIBLE
 10
68.17229762741131
 20
-45.75156488687384
 30
0.0
 11
68.17229762741133
 21
-50.75156488687385
 31
0.0
  0
LINE
  5
100000A4
  8
VISIBLE
 10
61.41798159815934
 20
-29.50898305409686
 30
0.0
 11
66.41798159815934
 21
-29.50898305409686
 31
0.0
  0
LINE
  5
100000A7
  8
VISIBLE
 10
66.41798159815934
 20
-29.50898305409686
 30
0.0
 11
66.41798159815934
 21
-34.50898305409686
 31
0.0
  0
LINE
  5
100000AA
  8
VISIBLE
 10
61.41798159815935
 20
-34.50898305409686
 30
0.0
 11
66.41798159815934
 21
-34.50898305409686
 31
0.0
  0
LINE
  5
100000AD
  8
VISIBLE
 10
61.41798159815934
 20
-29.50898305409686
 30
0.0
 11
61.41798159815935
 21
-34.50898305409686
 31
0.0
  0
LINE
  5
100000B0
  8
VISIBLE
 10
51.33104778828854
 20
-15.06795870220314
 30
0.0
 11
56.33104778828854
 21
-15.06795870220314
 31
0.0
  0
LINE
  5
100000B3
  8
VISIBLE
 10
56.33104778828854
 20
-15.06795870220314
 30
0.0
 11
56.33104778828854
 21
-20.06795870220314
 31
0.0
  0
LINE
  5
100000B6
  8
VISIBLE
 10
51.33104778828855
 20
-20.06795870220314
 30
0.0
 11
56.33104778828854
 21
-20.06795870220314
 31
0.0
  0
LINE
  5
100000B9
  8
VISIBLE
 10
51.33104778828854
 20
-15.06795870220314
 30
0.0
 11
51.33104778828855
 21
-20.06795870220314
 31
0.0
  0
LINE
  5
100000BC
  8
VISIBLE
 10
39.1137504691382
 20
-2.363318487481024
 30
0.0
 11
44.1137504691382
 21
-2.363318487481024
 31
0.0
  0
LINE
  5
100000BF
  8
VISIBLE
 10
44.1137504691382
 20
-2.363318487481024
 30
0.0
 11
44.1137504691382
 21
-7.363318487481028
 31
0.0
  0
LINE
  5
100000C2
  8
VISIBLE
 10
39.1137504691382
 20
-7.363318487481028
 30
0.0
 11
44.1137504691382
 21
-7.363318487481028
 31
0.0
  0
LINE
  5
100000C5
  8
VISIBLE
 10
39.1137504691382
 20
-2.363318487481024
 30
0.0
 11
39.1137504691382
 21
-7.363318487481028
 31
0.0
  0
LINE
  5
100000C8
  8
VISIBLE
 10
25.44063987088684
 20
8.766111848965936
 30
0.0
 11
30.44063987088684
 21
8.76611184896594
 31
0.0
  0
LINE
  5
100000CB
  8
VISIBLE
 10
30.44063987088684
 20
8.76611184896594
 30
0.0
 11
30.44063987088684
 21
3.766111848965935
 31
0.0
  0
LINE
  5
100000CE
  8
VISIBLE
 10
25.44063987088685
 20
3.766111848965935
 30
0.0
 11
30.44063987088684
 21
3.766111848965935
 31
0.0
  0
LINE
  5
100000D1
  8
VISIBLE
 10
25.44063987088684
 20
8.766111848965936
 30
0.0
 11
25.44063987088685
 21
3.766111848965935
 31
0.0
  0
LINE
  5
100000D4
  8
VISIBLE
 10
10.68432407954136
 20
18.41684429386054
 30
0.0
 11
15.68432407954136
 21
18.41684429386054
 31
0.0
  0
LINE
  5
100000D7
  8
VISIBLE
 10
15.68432407954136
 20
18.41684429386054
 30
0.0
 11
15.68432407954136
 21
13.41684429386053
 31
0.0
  0
LINE
  5
100000DA
  8
VISIBLE
 10
10.68432407954137
 20
13.41684429386053
 30
0.0
 11
15.68432407954136
 21
13.41684429386053
 31
0.0
  0
LINE
  5
100000DD
  8
VISIBLE
 10
10.68432407954136
 20
18.41684429386054
 30
0.0
 11
10.68432407954137
 21
13.41684429386053
 31
0.0
  0
LINE
  5
100000E0
  8
VISIBLE
 10
-4.945556335528976
 20
26.5776515867168
 30
0.0
 11
0.0544436644710211
 21
26.5776515867168
 31
0.0
  0
LINE
  5
100000E3
  8
VISIBLE
 10
0.0544436644710211
 20
26.5776515867168
 30
0.0
 11
0.0544436644710211
 21
21.5776515867168
 31
0.0
  0
LINE
  5
100000E6
  8
VISIBLE
 10
-4.94555633552897
 20
21.5776515867168
 30
0.0
 11
0.0544436644710211
 21
21.5776515867168
 31
0.0
  0
LINE
  5
100000E9
  8
VISIBLE
 10
-4.945556335528976
 20
26.5776515867168
 30
0.0
 11
-4.94555633552897
 21
21.5776515867168
 31
0.0
  0
POLYLINE
  5
100000EC
  8
VISIBLE
 66
     1
 10
0.0
 20
0.0
 30
0.0
 70
   128
  0
VERTEX
  5
100001D0
  8
VISIBLE
 10
67.16325418273391
 20
-70.41179401039726
 30
0.0
  0
VERTEX
  5
100001D1
  8
VISIBLE
 10
60.59572623302059
 20
-68.55556473785782
 30
0.0
  0
VERTEX
  5
100001D2
  8
VISIBLE
 10
55.36127575008197
 20
-67.23668523058025
 30
0.0
  0
SEQEND
  5
10000229
  8
VISIBLE
  0
ARC
  5
100000EF
  8
VISIBLE
 10
68.60148713102718
 20
-65.62311089429492
 30
0.0
 40
5.0
 50
253.2828868841247
 51
270.0
  0
LINE
  5
100000F2
  8
VISIBLE
 10
68.60148713102718
 20
-70.62311089429491
 30
0.0
 11
73.32834949054919
 21
-70.62311089429491
 31
0.0
  0
ARC
  5
100000F5
  8
VISIBLE
 10
73.32834949054919
 20
-65.6231108942949
 30
0.0
 40
5.0
 50
270.0
 51
355.4430192308184
  0
POLYLINE
  5
100000F8
  8
VISIBLE
 66
     1
 10
0.0
 20
0.0
 30
0.0
 70
   128
  0
VERTEX
  5
100001D3
  8
VISIBLE
 10
78.43669839891194
 20
-63.96553496813277
 30
0.0
  0
VERTEX
  5
100001D4
  8
VISIBLE
 10
78.37693340133343
 20
-65.11588958280704
 30
0.0
  0
VERTEX
  5
100001D5
  8
VISIBLE
 10
78.3125435556649
 20
-66.0203633596935
 30
0.0
  0
SEQEND
  5
1000022A
  8
VISIBLE
  0
ARC
  5
100000FB
  8
VISIBLE
 10
81.43415071271691
 20
-64.0891457543334
 30
0.0
 40
3.0
 50
101.3559745172642
 51
177.6385393715451
  0
ARC
  5
100000FE
  8
VISIBLE
 10
80.44963045322267
 20
-59.18703193898338
 30
0.0
 40
2.0
 50
281.3559745172639
 51
12.87022681615129
  0
POLYLINE
  5
10000101
  8
VISIBLE
 66
     1
 10
0.0
 20
0.0
 30
0.0
 70
   128
  0
VERTEX
  5
100001D6
  8
VISIBLE
 10
82.39938459780338
 20
-58.74154481718261
 30
0.0
  0
VERTEX
  5
100001D7
  8
VISIBLE
 10
81.53761761421461
 20
-55.21740457939594
 30
0.0
  0
VERTEX
  5
100001D8
  8
VISIBLE
 10
80.7935851600899
 20
-52.49888993505543
 30
0.0
  0
SEQEND
  5
1000022B
  8
VISIBLE
  0
ARC
  5
10000104
  8
VISIBLE
 10
78.8710491856617
 20
-53.05012076422719
 30
0.0
 40
2.0
 50
15.99869220230882
 51
77.90680073731889
  0
ARC
  5
10000107
  8
VISIBLE
 10
79.91856170163243
 20
-48.16108021122661
 30
0.0
 40
3.0
 50
192.8737515268911
 51
257.9068007373186
  0
POLYLINE
  5
1000010A
  8
VISIBLE
 66
     1
 10
0.0
 20
0.0
 30
0.0
 70
   128
  0
VERTEX
  5
100001D9
  8
VISIBLE
 10
57.5251207598703
 20
-12.64265035250837
 30
0.0
  0
VERTEX
  5
100001DA
  8
VISIBLE
 10
62.54290601696544
 20
-18.93942059692289
 30
0.0
  0
VERTEX
  5
100001DB
  8
VISIBLE
 10
66.99942287487349
 20
-25.46166203210469
 30
0.0
  0
VERTEX
  5
100001DC
  8
VISIBLE
 10
70.83174524279687
 20
-32.19658716737555
 30
0.0
  0
VERTEX
  5
100001DD
  8
VISIBLE
 10
73.36090812916927
 20
-37.62877339135871
 30
0.0
  0
VERTEX
  5
100001DE
  8
VISIBLE
 10
75.42760974599311
 20
-43.17643326485691
 30
0.0
  0
VERTEX
  5
100001DF
  8
VISIBLE
 10
76.99397159838195
 20
-48.82949080956368
 30
0.0
  0
SEQEND
  5
1000022C
  8
VISIBLE
  0
ARC
  5
1000010D
  8
VISIBLE
 10
59.80622713365291
 20
-10.69417563840807
 30
0.0
 40
3.0
 50
168.2876056106853
 51
220.5032794946077
  0
ARC
  5
10000110
  8
VISIBLE
 10
54.91033253278209
 20
-9.679180043755613
 30
0.0
 40
2.0
 50
348.2876056106852
 51
41.56004664959144
  0
POLYLINE
  5
10000113
  8
VISIBLE
 66
     1
 10
0.0
 20
0.0
 30
0.0
 70
   128
  0
VERTEX
  5
100001E0
  8
VISIBLE
 10
56.40685428483531
 20
-8.3523708466095
 30
0.0
  0
VERTEX
  5
100001E1
  8
VISIBLE
 10
53.44640595071692
 20
-5.128917584739397
 30
0.0
  0
VERTEX
  5
100001E2
  8
VISIBLE
 10
51.03923582665173
 20
-2.664539351586466
 30
0.0
  0
SEQEND
  5
1000022D
  8
VISIBLE
  0
ARC
  5
10000116
  8
VISIBLE
 10
49.62721181690689
 20
-4.080939081854759
 30
0.0
 40
2.0
 50
45.08863951845767
 51
100.5508051217113
  0
ARC
  5
10000119
  8
VISIBLE
 10
48.71167520573929
 20
0.8345255669462027
 30
0.0
 40
3.0
 50
227.0832778899844
 51
280.5508051217113
  0
POLYLINE
  5
1000011C
  8
VISIBLE
 66
     1
 10
0.0
 20
0.0
 30
0.0
 70
   128
  0
VERTEX
  5
100001E3
  8
VISIBLE
 10
15.14835271027371
 20
21.71548549202541
 30
0.0
  0
VERTEX
  5
100001E4
  8
VISIBLE
 10
24.51356530467017
 20
15.93635716632733
 30
0.0
  0
VERTEX
  5
100001E5
  8
VISIBLE
 10
33.51910158502656
 20
9.60369699618287
 30
0.0
  0
VERTEX
  5
100001E6
  8
VISIBLE
 10
40.26823155925067
 20
4.268082921640813
 30
0.0
  0
VERTEX
  5
100001E7
  8
VISIBLE
 10
46.66887129499526
 20
-1.362507018667612
 30
0.0
  0
SEQEND
  5
1000022E
  8
VISIBLE
  0
ARC
  5
1000011F
  8
VISIBLE
 10
16.64799356019592
 20
24.31376902567693
 30
0.0
 40
3.0
 50
192.5247290184065
 51
240.0079200766099
  0
ARC
  5
10000122
  8
VISIBLE
 10
11.76698105895352
 20
23.22946419643592
 30
0.0
 40
2.0
 50
12.52472901840654
 51
62.02937461777433
  0
POLYLINE
  5
10000125
  8
VISIBLE
 66
     1
 10
0.0
 20
0.0
 30
0.0
 70
   128
  0
VERTEX
  5
100001E8
  8
VISIBLE
 10
12.70501871531852
 20
24.9958405309811
 30
0.0
  0
VERTEX
  5
100001E9
  8
VISIBLE
 10
8.468093950564294
 20
27.18358349571829
 30
0.0
  0
VERTEX
  5
100001EA
  8
VISIBLE
 10
5.09107378173942
 20
28.84232064068575
 30
0.0
  0
SEQEND
  5
1000022F
  8
VISIBLE
  0
ARC
  5
10000128
  8
VISIBLE
 10
4.22481763064728
 20
27.03965586855117
 30
0.0
 40
2.0
 50
64.33375989489933
 51
110.6045165334469
  0
ARC
  5
1000012B
  8
VISIBLE
 10
2.465240453808699
 20
31.7198148571699
 30
0.0
 40
3.0
 50
244.8766814503518
 51
290.6045165334469
  0
POLYLINE
  5
1000012E
  8
VISIBLE
 66
     1
 10
0.0
 20
0.0
 30
0.0
 70
   128
  0
VERTEX
  5
100001EB
  8
VISIBLE
 10
0.7933767073204842
 20
29.18974482856227
 30
0.0
  0
VERTEX
  5
100001EC
  8
VISIBLE
 10
1.016363559196281
 20
29.0856561793158
 30
0.0
  0
VERTEX
  5
100001ED
  8
VISIBLE
 10
1.191536630973013
 20
29.00362661411793
 30
0.0
  0
SEQEND
  5
10000230
  8
VISIBLE
  0
ARC
  5
10000131
  8
VISIBLE
 10
-0.0513446243055359
 20
27.37688910570511
 30
0.0
 40
2.0
 50
65.01628385185616
 51
90.0
  0
LINE
  5
10000134
  8
VISIBLE
 10
-3.834815591458743
 20
29.37688910570511
 30
0.0
 11
-0.0513446243055361
 21
29.37688910570511
 31
0.0
  0
ARC
  5
10000137
  8
VISIBLE
 10
-3.834815591458743
 20
26.37688910570511
 30
0.0
 40
3.0
 50
90.0
 51
156.859739553644
  0
LINE
  5
1000013A
  8
VISIBLE
 10
-6.644348859786866
 20
27.43674592291003
 30
0.0
 11
-6.593452343028773
 21
27.55583917796735
 31
0.0
  0
LINE
  5
1000013D
  8
VISIBLE
 10
-14.61043811613164
 20
27.43674592291003
 30
0.0
 11
-6.644348859786866
 21
27.43674592291003
 31
0.0
  0
ARC
  5
10000140
  8
VISIBLE
 10
-9.774208545846752
 20
26.16754005170472
 30
0.0
 40
5.0
 50
165.2950698636948
 51
247.8427788206021
  0
POLYLINE
  5
10000143
  8
VISIBLE
 66
     1
 10
0.0
 20
0.0
 30
0.0
 70
   128
  0
VERTEX
  5
100001EE
  8
VISIBLE
 10
-11.65995553403285
 20
21.53677787938934
 30
0.0
  0
VERTEX
  5
100001EF
  8
VISIBLE
 10
-7.714796487962385
 20
19.86830997294253
 30
0.0
  0
VERTEX
  5
100001F0
  8
VISIBLE
 10
-4.613235787229415
 20
18.46976595032449
 30
0.0
  0
SEQEND
  5
10000231
  8
VISIBLE
  0
ARC
  5
10000146
  8
VISIBLE
 10
-5.874271270498222
 20
15.74767309556421
 30
0.0
 40
3.0
 50
351.4035798472815
 51
65.14361913329003
  0
ARC
  5
10000149
  8
VISIBLE
 10
-0.9304426599805609
 20
15.00030526790033
 30
0.0
 40
2.0
 50
171.4035798472816
 51
244.6131352878113
  0
POLYLINE
  5
1000014C
  8
VISIBLE
 66
     1
 10
0.0
 20
0.0
 30
0.0
 70
   128
  0
VERTEX
  5
100001F1
  8
VISIBLE
 10
-1.787898717751258
 20
13.19343805944468
 30
0.0
  0
VERTEX
  5
100001F2
  8
VISIBLE
 10
1.495656215350875
 20
11.59982877429274
 30
0.0
  0
VERTEX
  5
100001F3
  8
VISIBLE
 10
4.069788671575949
 20
10.29892866195045
 30
0.0
  0
SEQEND
  5
10000232
  8
VISIBLE
  0
ARC
  5
1000014F
  8
VISIBLE
 10
4.984875998342226
 20
12.07730297136671
 30
0.0
 40
2.0
 50
242.7712821781476
 51
311.6641986608465
  0
ARC
  5
10000152
  8
VISIBLE
 10
8.308694433447762
 20
8.342034438790684
 30
0.0
 40
3.0
 50
59.75506611937383
 51
131.6641986608465
  0
POLYLINE
  5
10000155
  8
VISIBLE
 66
     1
 10
0.0
 20
0.0
 30
0.0
 70
   128
  0
VERTEX
  5
100001F4
  8
VISIBLE
 10
9.819787216469805
 20
10.93367457605872
 30
0.0
  0
VERTEX
  5
100001F5
  8
VISIBLE
 10
18.12931642952133
 20
5.772016701662873
 30
0.0
  0
VERTEX
  5
100001F6
  8
VISIBLE
 10
26.11272155634389
 20
0.158322522240261
 30
0.0
  0
VERTEX
  5
100001F7
  8
VISIBLE
 10
32.08649043074637
 20
-4.53615855492516
 30
0.0
  0
VERTEX
  5
100001F8
  8
VISIBLE
 10
37.74080034438355
 20
-9.452160446729225
 30
0.0
  0
SEQEND
  5
10000233
  8
VISIBLE
  0
ARC
  5
10000158
  8
VISIBLE
 10
35.7143199713736
 20
-11.6642583871029
 30
0.0
 40
3.0
 50
346.6915255116737
 51
47.50751824320328
  0
ARC
  5
1000015B
  8
VISIBLE
 10
40.58004415136999
 20
-12.81522676381819
 30
0.0
 40
2.0
 50
166.6915255116736
 51
225.5539628479856
  0
POLYLINE
  5
1000015E
  8
VISIBLE
 66
     1
 10
0.0
 20
0.0
 30
0.0
 70
   128
  0
VERTEX
  5
100001F9
  8
VISIBLE
 10
39.1795697647519
 20
-14.24304730311109
 30
0.0
  0
VERTEX
  5
100001FA
  8
VISIBLE
 10
42.0873463896536
 20
-17.21110911561093
 30
0.0
  0
VERTEX
  5
100001FB
  8
VISIBLE
 10
44.28182995315951
 20
-19.62277653144425
 30
0.0
  0
SEQEND
  5
10000234
  8
VISIBLE
  0
ARC
  5
10000161
  8
VISIBLE
 10
45.783464104387
 20
-18.3017561395247
 30
0.0
 40
2.0
 50
221.3387948491837
 51
281.7950508179588
  0
ARC
  5
10000164
  8
VISIBLE
 10
46.80552158929668
 20
-23.1961813864296
 30
0.0
 40
3.0
 50
39.93346693553102
 51
101.7950508179588
  0
POLYLINE
  5
10000167
  8
VISIBLE
 66
     1
 10
0.0
 20
0.0
 30
0.0
 70
   128
  0
VERTEX
  5
100001FC
  8
VISIBLE
 10
49.10589262419261
 20
-21.27048849767193
 30
0.0
  0
VERTEX
  5
100001FD
  8
VISIBLE
 10
54.87743864667308
 20
-28.85588227028321
 30
0.0
  0
VERTEX
  5
100001FE
  8
VISIBLE
 10
58.68052685675728
 20
-34.93642483666119
 30
0.0
  0
SEQEND
  5
10000235
  8
VISIBLE
  0
POLYLINE
  5
1000016A
  8
VISIBLE
 66
     1
 10
0.0
 20
0.0
 30
0.0
 70
   128
  0
VERTEX
  5
100001FF
  8
VISIBLE
 10
58.68052685675728
 20
-34.93642483666119
 30
0.0
  0
VERTEX
  5
10000200
  8
VISIBLE
 10
61.8755269940424
 20
-41.29373436655346
 30
0.0
  0
VERTEX
  5
10000201
  8
VISIBLE
 10
64.26550721465378
 20
-47.67427505450075
 30
0.0
  0
VERTEX
  5
10000202
  8
VISIBLE
 10
65.54986714341726
 20
-52.68057930910317
 30
0.0
  0
VERTEX
  5
10000203
  8
VISIBLE
 10
66.2917913739397
 20
-57.66850966096874
 30
0.0
  0
SEQEND
  5
10000236
  8
VISIBLE
  0
POLYLINE
  5
1000016D
  8
VISIBLE
 66
     1
 10
0.0
 20
0.0
 30
0.0
 70
   128
  0
VERTEX
  5
10000204
  8
VISIBLE
 10
66.2917913739397
 20
-57.66850966096874
 30
0.0
  0
VERTEX
  5
10000205
  8
VISIBLE
 10
61.3999108539159
 20
-56.36635288760117
 30
0.0
  0
VERTEX
  5
10000206
  8
VISIBLE
 10
57.52351998522713
 20
-55.41652453488939
 30
0.0
  0
SEQEND
  5
10000237
  8
VISIBLE
  0
ARC
  5
10000170
  8
VISIBLE
 10
58.21227199039917
 20
-52.49665798393684
 30
0.0
 40
3.0
 50
200.2651956639706
 51
256.7274185650614
  0
ARC
  5
10000173
  8
VISIBLE
 10
53.52177445184245
 20
-54.22848731755877
 30
0.0
 40
2.0
 50
20.26519566397073
 51
84.26388507670676
  0
ARC
  5
10000176
  8
VISIBLE
 10
54.28402072317677
 20
-46.64016550030927
 30
0.0
 40
5.62650951486378
 50
257.9686144612392
 51
264.2638850767067
  0
POLYLINE
  5
10000179
  8
VISIBLE
 66
     1
 10
0.0
 20
0.0
 30
0.0
 70
   128
  0
VERTEX
  5
10000207
  8
VISIBLE
 10
53.11118904842331
 20
-52.14308065353011
 30
0.0
  0
VERTEX
  5
10000208
  8
VISIBLE
 10
49.42015582968553
 20
-51.38658965797861
 30
0.0
  0
VERTEX
  5
10000209
  8
VISIBLE
 10
46.50446104962173
 20
-50.83109207535825
 30
0.0
  0
SEQEND
  5
10000238
  8
VISIBLE
  0
ARC
  5
1000017C
  8
VISIBLE
 10
46.14209237303355
 20
-52.79799038036229
 30
0.0
 40
2.0
 50
79.56124824310317
 51
136.3257059055454
  0
ARC
  5
1000017F
  8
VISIBLE
 10
42.52570717609397
 20
-49.34520047836182
 30
0.0
 40
3.0
 50
260.519458299729
 51
316.3257059055456
  0
POLYLINE
  5
10000182
  8
VISIBLE
 66
     1
 10
0.0
 20
0.0
 30
0.0
 70
   128
  0
VERTEX
  5
1000020A
  8
VISIBLE
 10
42.03156924853976
 20
-52.30422526848315
 30
0.0
  0
VERTEX
  5
1000020B
  8
VISIBLE
 10
27.14675292124698
 20
-50.27908011706245
 30
0.0
  0
VERTEX
  5
1000020C
  8
VISIBLE
 10
15.32640709890599
 20
-49.30571108335355
 30
0.0
  0
SEQEND
  5
10000239
  8
VISIBLE
  0
POLYLINE
  5
10000185
  8
VISIBLE
 66
     1
 10
0.0
 20
0.0
 30
0.0
 70
   128
  0
VERTEX
  5
1000020D
  8
VISIBLE
 10
15.32640709890599
 20
-49.30571108335355
 30
0.0
  0
VERTEX
  5
1000020E
  8
VISIBLE
 10
11.15756309178816
 20
-49.09267322088082
 30
0.0
  0
VERTEX
  5
1000020F
  8
VISIBLE
 10
7.878181808936395
 20
-48.97228575396586
 30
0.0
  0
SEQEND
  5
1000023A
  8
VISIBLE
  0
ARC
  5
10000188
  8
VISIBLE
 10
7.969317378134402
 20
-45.97367035548159
 30
0.0
 40
3.0
 50
212.3425297205694
 51
268.2591710150746
  0
ARC
  5
1000018B
  8
VISIBLE
 10
3.744992581231283
 20
-48.64856848630263
 30
0.0
 40
2.0
 50
32.3425297205693
 51
89.14516439152955
  0
POLYLINE
  5
1000018E
  8
VISIBLE
 66
     1
 10
0.0
 20
0.0
 30
0.0
 70
   128
  0
VERTEX
  5
10000210
  8
VISIBLE
 10
3.774830866077659
 20
-46.64879107950019
 30
0.0
  0
VERTEX
  5
10000211
  8
VISIBLE
 10
-0.4853304110813973
 20
-46.61972737739623
 30
0.0
  0
VERTEX
  5
10000212
  8
VISIBLE
 10
-3.832442731525265
 20
-46.64531473787186
 30
0.0
  0
SEQEND
  5
1000023B
  8
VISIBLE
  0
ARC
  5
10000191
  8
VISIBLE
 10
-3.804417030474765
 20
-48.64511836825177
 30
0.0
 40
2.0
 50
90.80290347185814
 51
147.6990655546807
  0
ARC
  5
10000194
  8
VISIBLE
 10
-8.030682621865564
 20
-45.97328769415839
 30
0.0
 40
3.0
 50
271.7382649237382
 51
327.6990655546807
  0
POLYLINE
  5
10000197
  8
VISIBLE
 66
     1
 10
0.0
 20
0.0
 30
0.0
 70
   128
  0
VERTEX
  5
10000213
  8
VISIBLE
 10
-7.939681244725855
 20
-48.97190716807611
 30
0.0
  0
VERTEX
  5
10000214
  8
VISIBLE
 10
-12.61410863600572
 20
-49.1558982546758
 30
0.0
  0
VERTEX
  5
10000215
  8
VISIBLE
 10
-16.28169714720577
 20
-49.35946689714248
 30
0.0
  0
SEQEND
  5
1000023C
  8
VISIBLE
  0
LINE
  5
1000019A
  8
VISIBLE
 10
-16.28169714720729
 20
-61.38413240975566
 30
0.0
 11
-16.28169714720577
 21
-49.35946689714248
 31
0.0
  0
POLYLINE
  5
1000019D
  8
VISIBLE
 66
     1
 10
0.0
 20
0.0
 30
0.0
 70
   128
  0
VERTEX
  5
10000216
  8
VISIBLE
 10
-8.128370323336686
 20
-60.98378744433415
 30
0.0
  0
VERTEX
  5
10000217
  8
VISIBLE
 10
-12.69769036358553
 20
-61.17488838206528
 30
0.0
  0
VERTEX
  5
10000218
  8
VISIBLE
 10
-16.28169714720729
 20
-61.38413240975566
 30
0.0
  0
SEQEND
  5
1000023D
  8
VISIBLE
  0
ARC
  5
100001A0
  8
VISIBLE
 10
-8.030682621865594
 20
-63.98219654133565
 30
0.0
 40
3.0
 50
21.22123050734776
 51
91.86602753196047
  0
ARC
  5
100001A3
  8
VISIBLE
 10
-3.369733921715014
 20
-62.1723464882749
 30
0.0
 40
2.0
 50
201.2212305073481
 51
270.7767675446541
  0
POLYLINE
  5
100001A6
  8
VISIBLE
 66
     1
 10
0.0
 20
0.0
 30
0.0
 70
   128
  0
VERTEX
  5
10000219
  8
VISIBLE
 10
-3.342620449938646
 20
-64.17216269474194
 30
0.0
  0
VERTEX
  5
1000021A
  8
VISIBLE
 10
-2.323352567128196
 20
-64.16045072369606
 30
0.0
  0
VERTEX
  5
1000021B
  8
VISIBLE
 10
-1.522499763452134
 20
-64.15420518771171
 30
0.0
  0
SEQEND
  5
1000023E
  8
VISIBLE
  0
POLYLINE
  5
100001A9
  8
VISIBLE
 66
     1
 10
0.0
 20
0.0
 30
0.0
 70
   128
  0
VERTEX
  5
1000021C
  8
VISIBLE
 10
-1.522499763452134
 20
-64.15420518771171
 30
0.0
  0
VERTEX
  5
1000021D
  8
VISIBLE
 10
0.1609134545655023
 20
-64.14955767553818
 30
0.0
  0
VERTEX
  5
1000021E
  8
VISIBLE
 10
1.483595312169321
 20
-64.15396805773207
 30
0.0
  0
SEQEND
  5
1000023F
  8
VISIBLE
  0
POLYLINE
  5
100001AC
  8
VISIBLE
 66
     1
 10
0.0
 20
0.0
 30
0.0
 70
   128
  0
VERTEX
  5
1000021F
  8
VISIBLE
 10
1.483595312169321
 20
-64.15396805773207
 30
0.0
  0
VERTEX
  5
10000220
  8
VISIBLE
 10
2.490825675239194
 20
-64.16208580008515
 30
0.0
  0
VERTEX
  5
10000221
  8
VISIBLE
 10
3.282221493728851
 20
-64.1713513195284
 30
0.0
  0
SEQEND
  5
10000240
  8
VISIBLE
  0
ARC
  5
100001AF
  8
VISIBLE
 10
3.308845182758612
 20
-62.17152853258392
 30
0.0
 40
2.0
 50
269.2372649638622
 51
338.7636895343941
  0
ARC
  5
100001B2
  8
VISIBLE
 10
7.969317378134433
 20
-63.98260526097764
 30
0.0
 40
3.0
 50
88.13126319521456
 51
158.7636895343943
  0
POLYLINE
  5
100001B5
  8
VISIBLE
 66
     1
 10
0.0
 20
0.0
 30
0.0
 70
   128
  0
VERTEX
  5
10000222
  8
VISIBLE
 10
39.46449268846541
 20
-64.04249607660778
 30
0.0
  0
VERTEX
  5
10000223
  8
VISIBLE
 10
30.76367609997626
 20
-62.77868719643362
 30
0.0
  0
VERTEX
  5
10000224
  8
VISIBLE
 10
21.98005446820888
 20
-61.83156309658488
 30
0.0
  0
VERTEX
  5
10000225
  8
VISIBLE
 10
8.067146861462641
 20
-60.98420078656267
 30
0.0
  0
SEQEND
  5
10000241
  8
VISIBLE
  0
ARC
  5
100001B8
  8
VISIBLE
 10
38.97793951207309
 20
-67.00277748325522
 30
0.0
 40
3.0
 50
11.34347034038839
 51
80.66629104598262
  0
ARC
  5
100001BB
  8
VISIBLE
 10
43.88026807145447
 20
-66.01932707989306
 30
0.0
 40
2.0
 50
191.3434703403881
 51
260.004595613261
  0
POLYLINE
  5
100001BE
  8
VISIBLE
 66
     1
 10
0.0
 20
0.0
 30
0.0
 70
   128
  0
VERTEX
  5
10000226
  8
VISIBLE
 10
43.5331296973055
 20
-67.98897043573017
 30
0.0
  0
VERTEX
  5
10000227
  8
VISIBLE
 10
47.24973105939485
 20
-68.67187059514197
 30
0.0
  0
VERTEX
  5
10000228
  8
VISIBLE
 10
50.17019378603171
 20
-69.2475712329092
 30
0.0
  0
SEQEND
  5
10000242
  8
VISIBLE
  0
ARC
  5
100001C1
  8
VISIBLE
 10
50.56810060809156
 20
-67.28755333478728
 30
0.0
 40
2.0
 50
258.5242359634997
 51
325.011273807958
  0
ARC
  5
100001C4
  8
VISIBLE
 10
54.664425049279
 20
-70.15462955849165
 30
0.0
 40
3.0
 50
76.5684477483751
 51
145.0112738079581
  0
ENDSEC
  0
EOF
