  0
SECTION
  2
HEADER
  9
$ACADVER
  1
AC1009
  9
$DWGCODEPAGE
  3
ansi_1252
  9
$INSBASE
 10
0.0
 20
0.0
 30
0.0
  9
$EXTMIN
 10
1.000000000000000E+20
 20
1.000000000000000E+20
 30
1.000000000000000E+20
  9
$EXTMAX
 10
-1.000000000000000E+20
 20
-1.000000000000000E+20
 30
-1.000000000000000E+20
  9
$LIMMIN
 10
0.0
 20
0.0
  9
$LIMMAX
 10
12.0
 20
9.0
  9
$ORTHOMODE
 70
     0
  9
$REGENMODE
 70
     1
  9
$FILLMODE
 70
     1
  9
$QTEXTMODE
 70
     0
  9
$MIRRTEXT
 70
     1
  9
$DRAGMODE
 70
     2
  9
$LTSCALE
 40
1.0
  9
$OSMODE
 70
    37
  9
$ATTMODE
 70
     1
  9
$TEXTSIZE
 40
0.2
  9
$TRACEWID
 40
0.05
  9
$TEXTSTYLE
  7
STANDARD
  9
$CLAYER
  8
0
  9
$CELTYPE
  6
BYLAYER
  9
$CECOLOR
 62
   256
  9
$DIMSCALE
 40
1.0
  9
$DIMASZ
 40
0.18
  9
$DIMEXO
 40
0.0625
  9
$DIMDLI
 40
0.38
  9
$DIMRND
 40
0.0
  9
$DIMDLE
 40
0.0
  9
$DIMEXE
 40
0.18
  9
$DIMTP
 40
0.0
  9
$DIMTM
 40
0.0
  9
$DIMTXT
 40
0.18
  9
$DIMCEN
 40
0.09
  9
$DIMTSZ
 40
0.0
  9
$DIMTOL
 70
     0
  9
$DIMLIM
 70
     0
  9
$DIMTIH
 70
     1
  9
$DIMTOH
 70
     1
  9
$DIMSE1
 70
     0
  9
$DIMSE2
 70
     0
  9
$DIMTAD
 70
     0
  9
$DIMZIN
 70
     0
  9
$DIMBLK
  1

  9
$DIMASO
 70
     1
  9
$DIMSHO
 70
     1
  9
$DIMPOST
  1

  9
$DIMAPOST
  1

  9
$DIMALT
 70
     0
  9
$DIMALTD
 70
     2
  9
$DIMALTF
 40
0.0393700787401575
  9
$DIMLFAC
 40
1.0
  9
$DIMTOFL
 70
     0
  9
$DIMTVP
 40
0.0
  9
$DIMTIX
 70
     0
  9
$DIMSOXD
 70
     0
  9
$DIMSAH
 70
     0
  9
$DIMBLK1
  1

  9
$DIMBLK2
  1

  9
$DIMSTYLE
  2
STANDARD
  9
$DIMCLRD
 70
     0
  9
$DIMCLRE
 70
     0
  9
$DIMCLRT
 70
     0
  9
$DIMTFAC
 40
1.0
  9
$DIMGAP
 40
0.09
  9
$LUNITS
 70
     2
  9
$LUPREC
 70
     4
  9
$SKETCHINC
 40
0.1
  9
$FILLETRAD
 40
0.5
  9
$AUNITS
 70
     0
  9
$AUPREC
 70
     0
  9
$MENU
  1
.
  9
$ELEVATION
 40
0.0
  9
$PELEVATION
 40
0.0
  9
$THICKNESS
 40
0.0
  9
$LIMCHECK
 70
     0
  9
$CHAMFERA
 40
0.0
  9
$CHAMFERB
 40
0.0
  9
$SKPOLY
 70
     0
  9
$TDCREATE
 40
2459439.24841441
  9
$TDUPDATE
 40
2459439.248414433
  9
$TDINDWG
 40
0.0000000116
  9
$TDUSRTIMER
 40
0.0000000116
  9
$USRTIMER
 70
     1
  9
$ANGBASE
 50
0.0
  9
$ANGDIR
 70
     0
  9
$PDMODE
 70
     0
  9
$PDSIZE
 40
0.0
  9
$PLINEWID
 40
0.0
  9
$COORDS
 70
     1
  9
$SPLFRAME
 70
     0
  9
$SPLINETYPE
 70
     6
  9
$SPLINESEGS
 70
     8
  9
$ATTDIA
 70
     0
  9
$ATTREQ
 70
     1
  9
$HANDLING
 70
     1
  9
$HANDSEED
  5
1000016F
  9
$SURFTAB1
 70
     6
  9
$SURFTAB2
 70
     6
  9
$SURFTYPE
 70
     6
  9
$SURFU
 70
     6
  9
$SURFV
 70
     6
  9
$UCSNAME
  2

  9
$UCSORG
 10
0.0
 20
0.0
 30
0.0
  9
$UCSXDIR
 10
1.0
 20
0.0
 30
0.0
  9
$UCSYDIR
 10
0.0
 20
1.0
 30
0.0
  9
$PUCSNAME
  2

  9
$PUCSORG
 10
0.0
 20
0.0
 30
0.0
  9
$PUCSXDIR
 10
1.0
 20
0.0
 30
0.0
  9
$PUCSYDIR
 10
0.0
 20
1.0
 30
0.0
  9
$USERI1
 70
     0
  9
$USERI2
 70
     0
  9
$USERI3
 70
     0
  9
$USERI4
 70
     0
  9
$USERI5
 70
     0
  9
$USERR1
 40
0.0
  9
$USERR2
 40
0.0
  9
$USERR3
 40
0.0
  9
$USERR4
 40
0.0
  9
$USERR5
 40
0.0
  9
$WORLDVIEW
 70
     1
  9
$SHADEDGE
 70
     3
  9
$SHADEDIF
 70
    70
  9
$TILEMODE
 70
     1
  9
$MAXACTVP
 70
    64
  9
$PLIMCHECK
 70
     0
  9
$PEXTMIN
 10
1.000000000000000E+20
 20
1.000000000000000E+20
 30
1.000000000000000E+20
  9
$PEXTMAX
 10
-1.000000000000000E+20
 20
-1.000000000000000E+20
 30
-1.000000000000000E+20
  9
$PLIMMIN
 10
0.0
 20
0.0
  9
$PLIMMAX
 10
12.0
 20
9.0
  9
$UNITMODE
 70
     0
  9
$VISRETAIN
 70
     1
  9
$PLINEGEN
 70
     0
  9
$PSLTSCALE
 70
     1
  0
ENDSEC
  0
SECTION
  2
TABLES
  0
TABLE
  2
VPORT
 70
     1
  0
VPORT
  2
*ACTIVE
 70
     0
 10
0.0
 20
0.0
 11
1.0
 21
1.0
 12
10.42990654205607
 22
4.5
 13
0.0
 23
0.0
 14
0.5
 24
0.5
 15
0.5
 25
0.5
 16
0.0
 26
0.0
 36
1.0
 17
0.0
 27
0.0
 37
0.0
 40
9.0
 41
1.972972972850329
 42
50.0
 43
0.0
 44
0.0
 50
0.0
 51
0.0
 71
     0
 72
   100
 73
     1
 74
     3
 75
     0
 76
     0
 77
     0
 78
     0
  0
ENDTAB
  0
TABLE
  2
LTYPE
 70
     7
  0
LTYPE
  2
CONTINUOUS
 70
     0
  3
Solid line
 72
    65
 73
     0
 40
0.0
  0
LTYPE
  2
ONS_PHANTOM
 70
     0
  3
Onshape Phantom line ______ __ __ ______
 72
    65
 73
     6
 40
0.4999999999999999
 49
0.25
 49
-0.05
 49
0.05
 49
-0.05
 49
0.05
 49
-0.05
  0
LTYPE
  2
CENTER
 70
     0
  3
Center line ____ _ ____ _ ____ _
 72
    65
 73
     4
 40
0.7199999999999999
 49
0.45
 49
-0.09
 49
0.09
 49
-0.09
  0
LTYPE
  2
DASHED
 70
     0
  3
Dashed line __ __ __ __ __
 72
    65
 73
     2
 40
0.75
 49
0.5
 49
-0.25
  0
LTYPE
  2
ONS_DASHDOT
 70
     0
  3
Onshape Dashed with Dot _ . ____ . ____
 72
    65
 73
     4
 40
0.71
 49
0.5
 49
-0.1
 49
0.01
 49
-0.1
  0
LTYPE
  2
ONS_DOTTED
 70
     0
  3
Onshape Dotted line . . . . . . .
 72
    65
 73
     2
 40
0.11
 49
0.01
 49
-0.1
  0
LTYPE
  2
HIDDEN
 70
     0
  3
Hidden line ____ ____ ____ ____ 
 72
    65
 73
     2
 40
0.15
 49
0.1
 49
-0.05
  0
ENDTAB
  0
TABLE
  2
LAYER
 70
    39
  0
LAYER
  2
0
 70
     0
 62
     7
  6
CONTINUOUS
  0
LAYER
  2
SECTION_CUTTING_LINE
 70
     0
 62
     7
  6
ONS_PHANTOM
  0
LAYER
  2
DETAIL_VIEW_BORDER
 70
     0
 62
     7
  6
CONTINUOUS
  0
LAYER
  2
DETAIL_VIEW_PARENT_BORDER
 70
     0
 62
     7
  6
ONS_PHANTOM
  0
LAYER
  2
TEXT
 70
     0
 62
     7
  6
CONTINUOUS
  0
LAYER
  2
SKETCHED_GEOMETRY
 70
     0
 62
    -7
  6
CONTINUOUS
  0
LAYER
  2
VIRTUAL_SHARPS
 70
     0
 62
    -7
  6
CONTINUOUS
  0
LAYER
  2
CENTERLINES
 70
     0
 62
    -7
  6
CENTER
  0
LAYER
  2
CENTERMARKS
 70
     0
 62
    -7
  6
CONTINUOUS
  0
LAYER
  2
TABLES
 70
     0
 62
     7
  6
CONTINUOUS
  0
LAYER
  2
IMAGES
 70
     0
 62
    -7
  6
CONTINUOUS
  0
LAYER
  2
ANNOTATION_LINES
 70
     0
 62
    -7
  6
CONTINUOUS
  0
LAYER
  2
ANNOTATION_TEXT
 70
     0
 62
    -7
  6
CONTINUOUS
  0
LAYER
  2
SIDE_THREAD_SYMBOLS
 70
     0
 62
     7
  6
HIDDEN
  0
LAYER
  2
SIDE_THREAD_SYMBOLS_HIDDEN
 70
     0
 62
    -7
  6
HIDDEN
  0
LAYER
  2
SURFACE_THREAD_SYMBOLS
 70
     0
 62
     7
  6
HIDDEN
  0
LAYER
  2
SURFACE_THREAD_SYMBOLS_ON_
 70
     0
 62
     7
  6
HIDDEN
  0
LAYER
  2
SURFACE_THREAD_SYMBOLS_HID
 70
     0
 62
    -7
  6
HIDDEN
  0
LAYER
  2
BLIND_THREAD_SYMBOLS
 70
     0
 62
     7
  6
CONTINUOUS
  0
LAYER
  2
BLIND_THREAD_SYMBOLS_HIDDE
 70
     0
 62
    -7
  6
HIDDEN
  0
LAYER
  2
EXPLODE_LINES
 70
     0
 62
     7
  6
ONS_PHANTOM
  0
LAYER
  2
HIDDEN_EXPLODE_LINES
 70
     0
 62
    -7
  6
ONS_PHANTOM
  0
LAYER
  2
BREAK_LINES
 70
     0
 62
    -7
  6
CONTINUOUS
  0
LAYER
  2
SHEETMETAL_BEND_LINES_UP
 70
     0
 62
     7
  6
CENTER
  0
LAYER
  2
SHEETMETAL_BEND_LINES_DOWN
 70
     0
 62
     7
  6
CENTER
  0
LAYER
  2
SHEETMETAL_BEND_TANGENT_LI
 70
     0
 62
     7
  6
CONTINUOUS
  0
LAYER
  2
SHEETMETAL_CUT_LINES
 70
     0
 62
     7
  6
CONTINUOUS
  0
LAYER
  2
REGION_ASSOC_POINTS
 70
     0
 62
    -7
  6
CONTINUOUS
  0
LAYER
  2
HIDDEN
 70
     0
 62
    -7
  6
HIDDEN
  0
LAYER
  2
VISIBLE
 70
     0
 62
     7
  6
CONTINUOUS
  0
LAYER
  2
MODELSKETCH_VISIBLE
 70
     0
 62
     7
  6
CONTINUOUS
  0
LAYER
  2
MODELSKETCH_POINT
 70
     0
 62
     7
  6
CONTINUOUS
  0
LAYER
  2
MODELSKETCH_CONSTRUCTION
 70
     0
 62
    -7
  6
CENTER
  0
LAYER
  2
HIDDEN_BASE_VIEW
 70
     0
 62
     7
  6
CONTINUOUS
  0
LAYER
  2
TANGENT_LINES
 70
     0
 62
    -7
  6
CONTINUOUS
  0
LAYER
  2
TANGENT_HIDDEN
 70
     0
 62
    -7
  6
HIDDEN
  0
LAYER
  2
INVISIBLE_LINES
 70
     0
 62
    -7
  6
CONTINUOUS
  0
LAYER
  2
VIEW_HATCHES
 70
     0
 62
    -7
  6
CONTINUOUS
  0
LAYER
  2
SECTION_JOG_LINES
 70
     0
 62
    -7
  6
CONTINUOUS
  0
ENDTAB
  0
TABLE
  2
STYLE
 70
     2
  0
STYLE
  2
STANDARD
 70
     0
 40
0.0
 41
1.0
 50
0.0
 71
     0
 42
0.2
  3
txt
  4

  0
STYLE
  2
TTFSTYLE
 70
     0
 40
0.0
 41
1.0
 50
0.0
 71
     0
 42
0.2
  3
Verdana.ttf
  4

  0
ENDTAB
  0
TABLE
  2
VIEW
 70
     0
  0
ENDTAB
  0
TABLE
  2
UCS
 70
     0
  0
ENDTAB
  0
TABLE
  2
APPID
 70
     1
  0
APPID
  2
ACAD
 70
     0
  0
ENDTAB
  0
TABLE
  2
DIMSTYLE
 70
     1
  0
DIMSTYLE
  2
STANDARD
 70
     0
  3

  4

  5

  6

  7

 40
1.0
 41
0.18
 42
0.0625
 43
0.38
 44
0.18
 45
0.0
 46
0.0
 47
0.0
 48
0.0
140
0.18
141
0.09
142
0.0
143
25.4
144
1.0
145
0.0
146
1.0
147
0.09
 71
     0
 72
     0
 73
     1
 74
     1
 75
     0
 76
     0
 77
     0
 78
     0
170
     0
171
     2
172
     0
173
     0
174
     0
175
     0
176
     0
177
     0
178
     0
  0
ENDTAB
  0
ENDSEC
  0
SECTION
  2
BLOCKS
  0
BLOCK
  8
0
  2
$MODEL_SPACE
 70
     0
 10
0.0
 20
0.0
 30
0.0
  3
$MODEL_SPACE
  1

  0
ENDBLK
  5
21
  8
0
  0
BLOCK
 67
     1
  8
0
  2
$PAPER_SPACE
 70
     0
 10
0.0
 20
0.0
 30
0.0
  3
$PAPER_SPACE
  1

  0
ENDBLK
  5
1D
 67
     1
  8
0
  0
ENDSEC
  0
SECTION
  2
ENTITIES
  0
LINE
  5
10000050
  8
VISIBLE
 10
-50.08501845303844
 20
-7.152301000909665
 30
0.0
 11
-45.08501845303844
 21
-7.152301000909661
 31
0.0
  0
LINE
  5
10000053
  8
VISIBLE
 10
-45.08501845303844
 20
-7.152301000909661
 30
0.0
 11
-45.08501845303844
 21
-12.15230100090966
 31
0.0
  0
LINE
  5
10000056
  8
VISIBLE
 10
-50.08501845303843
 20
-12.15230100090966
 30
0.0
 11
-45.08501845303844
 21
-12.15230100090966
 31
0.0
  0
LINE
  5
10000059
  8
VISIBLE
 10
-50.08501845303844
 20
-7.152301000909665
 30
0.0
 11
-50.08501845303843
 21
-12.15230100090966
 31
0.0
  0
LINE
  5
1000005C
  8
VISIBLE
 10
-59.5671986179734
 20
-19.51557494446233
 30
0.0
 11
-54.56719861797339
 21
-19.51557494446233
 31
0.0
  0
LINE
  5
1000005F
  8
VISIBLE
 10
-54.56719861797339
 20
-19.51557494446233
 30
0.0
 11
-54.56719861797339
 21
-24.51557494446233
 31
0.0
  0
LINE
  5
10000062
  8
VISIBLE
 10
-59.56719861797338
 20
-24.51557494446233
 30
0.0
 11
-54.56719861797339
 21
-24.51557494446233
 31
0.0
  0
LINE
  5
10000065
  8
VISIBLE
 10
-59.5671986179734
 20
-19.51557494446233
 30
0.0
 11
-59.56719861797338
 21
-24.51557494446233
 31
0.0
  0
LINE
  5
10000068
  8
VISIBLE
 10
-67.06973790787104
 20
-33.16218174140821
 30
0.0
 11
-62.06973790787104
 21
-33.16218174140821
 31
0.0
  0
LINE
  5
1000006B
  8
VISIBLE
 10
-62.06973790787104
 20
-33.16218174140821
 30
0.0
 11
-62.06973790787104
 21
-38.16218174140822
 31
0.0
  0
LINE
  5
1000006E
  8
VISIBLE
 10
-67.06973790787103
 20
-38.16218174140822
 30
0.0
 11
-62.06973790787104
 21
-38.16218174140822
 31
0.0
  0
LINE
  5
10000071
  8
VISIBLE
 10
-67.06973790787104
 20
-33.16218174140821
 30
0.0
 11
-67.06973790787103
 21
-38.16218174140822
 31
0.0
  0
LINE
  5
10000074
  8
VISIBLE
 10
-72.0969646747994
 20
-47.90103282014928
 30
0.0
 11
-67.0969646747994
 21
-47.90103282014928
 31
0.0
  0
LINE
  5
10000077
  8
VISIBLE
 10
-67.0969646747994
 20
-47.90103282014928
 30
0.0
 11
-67.0969646747994
 21
-52.90103282014929
 31
0.0
  0
LINE
  5
1000007A
  8
VISIBLE
 10
-72.09696467479938
 20
-52.90103282014929
 30
0.0
 11
-67.0969646747994
 21
-52.90103282014929
 31
0.0
  0
LINE
  5
1000007D
  8
VISIBLE
 10
-72.0969646747994
 20
-47.90103282014928
 30
0.0
 11
-72.09696467479938
 21
-52.90103282014929
 31
0.0
  0
LINE
  5
10000080
  8
VISIBLE
 10
-74.87610047805788
 20
-63.23324233947427
 30
0.0
 11
-69.87610047805786
 21
-63.23324233947427
 31
0.0
  0
LINE
  5
10000083
  8
VISIBLE
 10
-69.87610047805786
 20
-63.23324233947427
 30
0.0
 11
-69.87610047805786
 21
-68.23324233947427
 31
0.0
  0
LINE
  5
10000086
  8
VISIBLE
 10
-74.87610047805786
 20
-68.23324233947427
 30
0.0
 11
-69.87610047805786
 21
-68.23324233947427
 31
0.0
  0
LINE
  5
10000089
  8
VISIBLE
 10
-74.87610047805788
 20
-63.23324233947427
 30
0.0
 11
-74.87610047805786
 21
-68.23324233947427
 31
0.0
  0
LINE
  5
1000008C
  8
VISIBLE
 10
-59.15421843386742
 20
-58.86429866834315
 30
0.0
 11
-54.15421843386742
 21
-58.86429866834315
 31
0.0
  0
LINE
  5
1000008F
  8
VISIBLE
 10
-54.15421843386742
 20
-58.86429866834315
 30
0.0
 11
-54.15421843386742
 21
-63.86429866834315
 31
0.0
  0
LINE
  5
10000092
  8
VISIBLE
 10
-59.15421843386741
 20
-63.86429866834315
 30
0.0
 11
-54.15421843386742
 21
-63.86429866834315
 31
0.0
  0
LINE
  5
10000095
  8
VISIBLE
 10
-59.15421843386742
 20
-58.86429866834315
 30
0.0
 11
-59.15421843386741
 21
-63.86429866834315
 31
0.0
  0
LINE
  5
10000098
  8
VISIBLE
 10
-43.15599225696914
 20
-55.6475302326197
 30
0.0
 11
-38.15599225696914
 21
-55.6475302326197
 31
0.0
  0
LINE
  5
1000009B
  8
VISIBLE
 10
-38.15599225696914
 20
-55.6475302326197
 30
0.0
 11
-38.15599225696914
 21
-60.64753023261971
 31
0.0
  0
LINE
  5
1000009E
  8
VISIBLE
 10
-43.15599225696913
 20
-60.64753023261971
 30
0.0
 11
-38.15599225696914
 21
-60.64753023261971
 31
0.0
  0
LINE
  5
100000A1
  8
VISIBLE
 10
-43.15599225696914
 20
-55.6475302326197
 30
0.0
 11
-43.15599225696913
 21
-60.64753023261971
 31
0.0
  0
LINE
  5
100000A4
  8
VISIBLE
 10
-26.97517453303178
 20
-53.53173785394501
 30
0.0
 11
-21.97517453303177
 21
-53.53173785394501
 31
0.0
  0
LINE
  5
100000A7
  8
VISIBLE
 10
-21.97517453303177
 20
-53.53173785394501
 30
0.0
 11
-21.97517453303177
 21
-58.53173785394501
 31
0.0
  0
LINE
  5
100000AA
  8
VISIBLE
 10
-26.97517453303176
 20
-58.53173785394501
 30
0.0
 11
-21.97517453303177
 21
-58.53173785394501
 31
0.0
  0
LINE
  5
100000AD
  8
VISIBLE
 10
-26.97517453303178
 20
-53.53173785394501
 30
0.0
 11
-26.97517453303176
 21
-58.53173785394501
 31
0.0
  0
LINE
  5
100000B0
  8
VISIBLE
 10
-73.37001750919408
 20
-70.6231108942949
 30
0.0
 11
-68.64336678834368
 21
-70.6231108942949
 31
0.0
  0
ARC
  5
100000B3
  8
VISIBLE
 10
-68.64336678834368
 20
-65.62311089429487
 30
0.0
 40
5.0
 50
270.0
 51
286.731785763709
  0
POLYLINE
  5
100000B6
  8
VISIBLE
 66
     1
 10
0.0
 20
0.0
 30
0.0
 70
   128
  0
VERTEX
  5
10000131
  8
VISIBLE
 10
-39.82179636836237
 20
-64.09108233336553
 30
0.0
  0
VERTEX
  5
10000132
  8
VISIBLE
 10
-47.63810457883261
 20
-65.52542865327396
 30
0.0
  0
VERTEX
  5
10000133
  8
VISIBLE
 10
-55.34759762178538
 20
-67.22095515844434
 30
0.0
  0
VERTEX
  5
10000134
  8
VISIBLE
 10
-67.20390757244871
 20
-70.4114255420363
 30
0.0
  0
SEQEND
  5
10000162
  8
VISIBLE
  0
ARC
  5
100000B9
  8
VISIBLE
 10
-39.33118431951132
 20
-67.05069376352357
 30
0.0
 40
3.0
 50
29.24686605409781
 51
99.41227666848003
  0
ARC
  5
100000BC
  8
VISIBLE
 10
-34.96857065844503
 20
-64.60782617720666
 30
0.0
 40
2.0
 50
209.2468660540979
 51
277.9990050806236
  0
POLYLINE
  5
100000BF
  8
VISIBLE
 66
     1
 10
0.0
 20
0.0
 30
0.0
 70
   128
  0
VERTEX
  5
10000135
  8
VISIBLE
 10
-34.69025884782213
 20
-66.58836714776692
 30
0.0
  0
VERTEX
  5
10000136
  8
VISIBLE
 10
-30.99421341824831
 20
-66.09660292721397
 30
0.0
  0
VERTEX
  5
10000137
  8
VISIBLE
 10
-28.09034945128166
 20
-65.74899495906291
 30
0.0
  0
SEQEND
  5
10000163
  8
VISIBLE
  0
ARC
  5
100000C2
  8
VISIBLE
 10
-28.31655148242249
 20
-63.76182797033053
 30
0.0
 40
2.0
 50
276.4941066254485
 51
345.9444703279534
  0
ARC
  5
100000C5
  8
VISIBLE
 10
-23.46624745336247
 20
-64.97613881425976
 30
0.0
 40
3.0
 50
95.51546922404665
 51
165.9444703279531
  0
POLYLINE
  5
100000C8
  8
VISIBLE
 66
     1
 10
0.0
 20
0.0
 30
0.0
 70
   128
  0
VERTEX
  5
10000138
  8
VISIBLE
 10
-16.28169716622332
 20
-61.38413241100498
 30
0.0
  0
VERTEX
  5
10000139
  8
VISIBLE
 10
-20.47129927137019
 20
-61.69540832400082
 30
0.0
  0
VERTEX
  5
1000013A
  8
VISIBLE
 10
-23.7545909381846
 20
-61.99002795986057
 30
0.0
  0
SEQEND
  5
10000164
  8
VISIBLE
  0
LINE
  5
100000CB
  8
VISIBLE
 10
-16.28169714720417
 20
-49.37150561023383
 30
0.0
 11
-16.28169716622332
 21
-61.38413241100498
 31
0.0
  0
ARC
  5
100000CE
  8
VISIBLE
 10
-16.28169714720417
 20
-55.37150561023468
 30
0.0
 40
6.000000000000852
 50
90.0
 51
93.6692315633104
  0
POLYLINE
  5
100000D1
  8
VISIBLE
 66
     1
 10
0.0
 20
0.0
 30
0.0
 70
   128
  0
VERTEX
  5
1000013B
  8
VISIBLE
 10
-16.66567566897766
 20
-49.38380366604152
 30
0.0
  0
VERTEX
  5
1000013C
  8
VISIBLE
 10
-21.62190344975623
 20
-49.74968011338913
 30
0.0
  0
VERTEX
  5
1000013D
  8
VISIBLE
 10
-25.50590927310952
 20
-50.10402263536783
 30
0.0
  0
SEQEND
  5
10000165
  8
VISIBLE
  0
ARC
  5
100000D4
  8
VISIBLE
 10
-25.80128678943788
 20
-47.1185993617184
 30
0.0
 40
3.0
 50
219.5845288240579
 51
275.6504496572917
  0
ARC
  5
100000D7
  8
VISIBLE
 10
-29.65471345841679
 20
-50.30467891295407
 30
0.0
 40
2.0
 50
39.58452882405818
 51
96.57900515419594
  0
POLYLINE
  5
100000DA
  8
VISIBLE
 66
     1
 10
0.0
 20
0.0
 30
0.0
 70
   128
  0
VERTEX
  5
1000013E
  8
VISIBLE
 10
-29.88385974243991
 20
-48.31784928248285
 30
0.0
  0
VERTEX
  5
1000013F
  8
VISIBLE
 10
-34.1070523511215
 20
-48.84102918794607
 30
0.0
  0
VERTEX
  5
10000140
  8
VISIBLE
 10
-37.41200792262782
 20
-49.30135481558319
 30
0.0
  0
SEQEND
  5
10000166
  8
VISIBLE
  0
ARC
  5
100000DD
  8
VISIBLE
 10
-37.12283922406904
 20
-51.28033977352852
 30
0.0
 40
2.0
 50
98.31321052322706
 51
155.3240225300461
  0
ARC
  5
100000E0
  8
VISIBLE
 10
-41.66625571274071
 20
-49.19290914941988
 30
0.0
 40
3.0
 50
279.2697220197065
 51
335.3240225300459
  0
POLYLINE
  5
100000E3
  8
VISIBLE
 66
     1
 10
0.0
 20
0.0
 30
0.0
 70
   128
  0
VERTEX
  5
10000141
  8
VISIBLE
 10
-41.18300883008531
 20
-52.15373208407907
 30
0.0
  0
VERTEX
  5
10000142
  8
VISIBLE
 10
-47.9355941673512
 20
-53.35363868527934
 30
0.0
  0
VERTEX
  5
10000143
  8
VISIBLE
 10
-54.62396596032136
 20
-54.73988851282452
 30
0.0
  0
VERTEX
  5
10000144
  8
VISIBLE
 10
-64.98228877913887
 20
-57.29567704345052
 30
0.0
  0
SEQEND
  5
10000167
  8
VISIBLE
  0
POLYLINE
  5
100000E6
  8
VISIBLE
 66
     1
 10
0.0
 20
0.0
 30
0.0
 70
   128
  0
VERTEX
  5
10000145
  8
VISIBLE
 10
-64.98228877913887
 20
-57.29567704345052
 30
0.0
  0
VERTEX
  5
10000146
  8
VISIBLE
 10
-63.6239507117821
 20
-51.2578502919506
 30
0.0
  0
VERTEX
  5
10000147
  8
VISIBLE
 10
-61.89811424337157
 20
-45.3882355464709
 30
0.0
  0
VERTEX
  5
10000148
  8
VISIBLE
 10
-59.74091372638283
 20
-39.62170579967527
 30
0.0
  0
VERTEX
  5
10000149
  8
VISIBLE
 10
-57.69821446631219
 20
-35.11889833235873
 30
0.0
  0
VERTEX
  5
1000014A
  8
VISIBLE
 10
-55.30988463415455
 20
-30.60522802394816
 30
0.0
  0
VERTEX
  5
1000014B
  8
VISIBLE
 10
-52.53779127105149
 20
-26.04998480613572
 30
0.0
  0
SEQEND
  5
10000168
  8
VISIBLE
  0
ARC
  5
100000E9
  8
VISIBLE
 10
-50.02151161591222
 20
-27.68348922827
 30
0.0
 40
3.0
 50
85.24003465894805
 51
147.0093973052539
  0
ARC
  5
100000EC
  8
VISIBLE
 10
-49.60660393133256
 20
-22.7007338044832
 30
0.0
 40
2.0
 50
265.2400346589482
 51
326.0644999342449
  0
POLYLINE
  5
100000EF
  8
VISIBLE
 66
     1
 10
0.0
 20
0.0
 30
0.0
 70
   128
  0
VERTEX
  5
1000014C
  8
VISIBLE
 10
-47.94727082970202
 20
-23.81725234791773
 30
0.0
  0
VERTEX
  5
1000014D
  8
VISIBLE
 10
-45.5123357225878
 20
-20.29714602879753
 30
0.0
  0
VERTEX
  5
1000014E
  8
VISIBLE
 10
-43.51382717309419
 20
-17.54417856377525
 30
0.0
  0
SEQEND
  5
10000169
  8
VISIBLE
  0
ARC
  5
100000F2
  8
VISIBLE
 10
-45.12048093973274
 20
-16.35310187684609
 30
0.0
 40
2.0
 50
323.4489810955136
 51
16.15723184790654
  0
ARC
  5
100000F5
  8
VISIBLE
 10
-40.3179725914093
 20
-14.96173076737037
 30
0.0
 40
3.0
 50
143.8474878366476
 51
196.1572318479066
  0
ARC
  5
100000F8
  8
VISIBLE
 10
-47.5850184530384
 20
-9.652301000909626
 30
0.0
 40
6.000000000000001
 50
323.8474878366475
 51
138.9417823954158
  0
POLYLINE
  5
100000FB
  8
VISIBLE
 66
     1
 10
0.0
 20
0.0
 30
0.0
 70
   128
  0
VERTEX
  5
1000014F
  8
VISIBLE
 10
-52.33532235438808
 20
-5.971471500536508
 30
0.0
  0
VERTEX
  5
10000150
  8
VISIBLE
 10
-52.20888692027739
 20
-5.825824144256655
 30
0.0
  0
VERTEX
  5
10000151
  8
VISIBLE
 10
-52.10927391177986
 20
-5.711347747691806
 30
0.0
  0
SEQEND
  5
1000016A
  8
VISIBLE
  0
ARC
  5
100000FE
  8
VISIBLE
 10
-54.60208973151023
 20
-4.006333933338026
 30
0.0
 40
3.0
 50
261.5497688672057
 51
319.0768729293676
  0
ARC
  5
10000101
  8
VISIBLE
 10
-55.33684106168312
 20
-8.952053343374265
 30
0.0
 40
2.0
 50
81.54976886720598
 51
139.8221138927186
  0
POLYLINE
  5
10000104
  8
VISIBLE
 66
     1
 10
0.0
 20
0.0
 30
0.0
 70
   128
  0
VERTEX
  5
10000152
  8
VISIBLE
 10
-56.86493124716696
 20
-7.661727653857078
 30
0.0
  0
VERTEX
  5
10000153
  8
VISIBLE
 10
-59.44461705785557
 20
-10.84242434080563
 30
0.0
  0
VERTEX
  5
10000154
  8
VISIBLE
 10
-61.40725942671735
 20
-13.44026920821761
 30
0.0
  0
SEQEND
  5
1000016B
  8
VISIBLE
  0
ARC
  5
10000107
  8
VISIBLE
 10
-59.79380285245892
 20
-14.62211432623531
 30
0.0
 40
2.0
 50
143.7774968492382
 51
204.5655496516074
  0
ARC
  5
1000010A
  8
VISIBLE
 10
-64.34123406577211
 20
-16.70078442035433
 30
0.0
 40
3.0
 50
326.2757285272119
 51
24.56554965160734
  0
POLYLINE
  5
1000010D
  8
VISIBLE
 66
     1
 10
0.0
 20
0.0
 30
0.0
 70
   128
  0
VERTEX
  5
10000155
  8
VISIBLE
 10
-75.50821024129654
 20
-49.30894102398246
 30
0.0
  0
VERTEX
  5
10000156
  8
VISIBLE
 10
-73.88457213752919
 20
-43.46753567811015
 30
0.0
  0
VERTEX
  5
10000157
  8
VISIBLE
 10
-71.8834919599006
 20
-37.67394118872885
 30
0.0
  0
VERTEX
  5
10000158
  8
VISIBLE
 10
-69.4601469447673
 20
-31.91252837608386
 30
0.0
  0
VERTEX
  5
10000159
  8
VISIBLE
 10
-67.23288841813014
 20
-27.39822255106769
 30
0.0
  0
VERTEX
  5
1000015A
  8
VISIBLE
 10
-64.70078107038329
 20
-22.88604655688125
 30
0.0
  0
VERTEX
  5
1000015B
  8
VISIBLE
 10
-61.84607704808863
 20
-18.36637484332899
 30
0.0
  0
SEQEND
  5
1000016C
  8
VISIBLE
  0
ARC
  5
10000110
  8
VISIBLE
 10
-78.42060944332272
 20
-48.58926686991183
 30
0.0
 40
3.0
 50
265.723972458676
 51
346.1198701097525
  0
ARC
  5
10000113
  8
VISIBLE
 10
-78.79341694171006
 20
-53.57534895599371
 30
0.0
 40
2.0
 50
85.72397245867582
 51
163.6658844747631
  0
POLYLINE
  5
10000116
  8
VISIBLE
 66
     1
 10
0.0
 20
0.0
 30
0.0
 70
   128
  0
VERTEX
  5
1000015C
  8
VISIBLE
 10
-80.712692951626
 20
-53.01287264737154
 30
0.0
  0
VERTEX
  5
1000015D
  8
VISIBLE
 10
-81.63772928121219
 20
-56.33153985773187
 30
0.0
  0
VERTEX
  5
1000015E
  8
VISIBLE
 10
-82.30002665913642
 20
-58.94744512664985
 30
0.0
  0
SEQEND
  5
1000016D
  8
VISIBLE
  0
ARC
  5
10000119
  8
VISIBLE
 10
-80.35610691427236
 20
-59.41773867915478
 30
0.0
 40
2.0
 50
166.3997251134953
 51
259.454938291474
  0
ARC
  5
1000011C
  8
VISIBLE
 10
-81.27115078743697
 20
-64.33329507799553
 30
0.0
 40
3.0
 50
352.8300268372922
 51
79.45493829147354
  0
POLYLINE
  5
1000011F
  8
VISIBLE
 66
     1
 10
0.0
 20
0.0
 30
0.0
 70
   128
  0
VERTEX
  5
1000015F
  8
VISIBLE
 10
-78.33038166717128
 20
-64.99396193193611
 30
0.0
  0
VERTEX
  5
10000160
  8
VISIBLE
 10
-78.31040296801667
 20
-64.8336400366306
 30
0.0
  0
VERTEX
  5
10000161
  8
VISIBLE
 10
-78.29461004312279
 20
-64.70773492288085
 30
0.0
  0
SEQEND
  5
1000016E
  8
VISIBLE
  0
ARC
  5
10000122
  8
VISIBLE
 10
-72.37610047805778
 20
-65.73324233947422
 30
0.0
 40
6.000000000000051
 50
172.9224063597803
 51
173.677107139362
  0
ARC
  5
10000125
  8
VISIBLE
 10
-73.37001750919408
 20
-65.62311089429488
 30
0.0
 40
5.0
 50
173.6771071393622
 51
270.0
  0
ENDSEC
  0
EOF
